<svg width="90" height="40" viewBox="0 0 90 40" fill="none" xmlns="http://www.w3.org/2000/svg">
<rect width="90" height="40" rx="4" fill="white"/>
<path d="M66.9999 12H56.7C57.3 15.4 60.6 18.6 64.2 18.6H72.4C72.5 18.3 72.4999 17.8 72.4999 17.5C72.4999 14.5 69.9999 12 66.9999 12Z" fill="url(#paint0_linear)"/>
<path d="M57.6 19.2002V27.5002H62.6V23.1002H67C69.4 23.1002 71.5 21.4002 72.2 19.2002H57.6Z" fill="#4FAD50"/>
<path d="M40 12V27.4H44.4C44.4 27.4 45.5 27.4 46.1 26.3C49.1 20.4 50 18.6 50 18.6H50.6V27.4H55.6V12H51.2C51.2 12 50.1 12.1 49.5 13.1C47 18.2 45.6 20.8 45.6 20.8H45V12H40Z" fill="#4FAD50"/>
<path d="M19 27.5006V12.1006H24C24 12.1006 25.4 12.1006 26.2 14.3006C28.2 20.1006 28.4 20.9006 28.4 20.9006C28.4 20.9006 28.8 19.5006 30.6 14.3006C31.4 12.1006 32.8 12.1006 32.8 12.1006H37.8V27.5006H32.8V19.2006H32.2L29.4 27.5006H27.2L24.4 19.2006H23.8V27.5006H19Z" fill="#4FAD50"/>
<defs>
<linearGradient id="paint0_linear" x1="56.6822" y1="15.3473" x2="72.4645" y2="15.3473" gradientUnits="userSpaceOnUse">
<stop stop-color="#27B1E6"/>
<stop offset="1" stop-color="#148ACA"/>
</linearGradient>
</defs>
</svg>
