<svg width="80" height="80" viewBox="0 0 80 80" xmlns="http://www.w3.org/2000/svg">
<path d="M52.6023 31.688C57.9064 26.8522 65.0792 20.312 65.733 4.6875H70.4688V0H9.53125V4.6875H14.267C14.9208 20.312 22.0936 26.8522 27.3977 31.688C30.9556 34.9319 32.9688 36.9173 32.9688 40C32.9688 43.0827 30.9556 45.0681 27.3977 48.312C22.0936 53.1478 14.9208 59.688 14.267 75.3125H9.53125V80H70.4688V75.3125H65.733C65.0792 59.688 57.9064 53.1478 52.6023 48.312C49.0444 45.0681 47.0312 43.0827 47.0312 40C47.0312 36.9173 49.0444 34.9319 52.6023 31.688ZM37.6562 57.5684C36.9323 57.7178 36.2172 57.9352 35.5192 58.2239L21.1634 64.1644C23.5078 58.2034 27.2838 54.7592 30.5558 51.7761C34.2073 48.4469 37.6562 45.3023 37.6562 40V57.5684ZM49.4442 51.7761C52.7162 54.7592 56.492 58.2034 58.8366 64.1642L44.4808 58.2237C43.7828 57.935 43.0677 57.7177 42.3438 57.5683V40C42.3438 45.3023 45.7927 48.4469 49.4442 51.7761ZM21.0811 15.625C19.9478 12.672 19.1652 9.10656 18.9603 4.6875H61.0395C60.8347 9.10656 60.0522 12.672 58.9187 15.625H21.0811Z" fill="currentColor"/>
</svg>
