<svg width="40" height="40" viewBox="0 0 40 40" fill="none" xmlns="http://www.w3.org/2000/svg">
<g clip-path="url(#clip0)">
<path d="M38.8 0H1.2C0.5 0 0 0.5 0 1.2V38.9C0 39.5 0.5 40 1.2 40H38.9C39.5 40 40.1 39.5 40.1 38.8V1.2C40 0.5 39.5 0 38.8 0ZM37.7 37.7H2.3V2.3H37.6V37.7H37.7Z" fill="white"/>
<path d="M11.2 33.4C10.7 33.4 10.3 33 10.3 32.5V7.4C10.3 6.9 10.7 6.5 11.2 6.5H22.5C27.8 6.5 32.2 10.8 32.2 16.2C32.2 21.6 27.9 25.9 22.5 25.9H17.1V32.6C17.1 33.1 16.7 33.5 16.2 33.5H11.2V33.4ZM12.1 31.7H15.4V25C15.4 24.5 15.8 24.1 16.3 24.1H22.6C27 24.1 30.5 20.5 30.5 16.2C30.5 11.9 27 8.3 22.6 8.3H12.1V31.7Z" fill="white"/>
<path d="M16.2 20.8996C15.7 20.8996 15.3 20.4996 15.3 19.9996V12.4996C15.3 11.9996 15.7 11.5996 16.2 11.5996H22.5C25.1 11.5996 27.1 13.6996 27.1 16.1996C27.1 18.6996 25 20.7996 22.5 20.7996H16.2V20.8996ZM17.1 19.0996H22.5C24.1 19.0996 25.4 17.7996 25.4 16.1996C25.4 14.5996 24.1 13.2996 22.5 13.2996H17.1V19.0996Z" fill="white"/>
</g>
<defs>
<clipPath id="clip0">
<rect width="40" height="40" fill="white"/>
</clipPath>
</defs>
</svg>
