<svg width="40" height="40" viewBox="0 0 40 40" fill="none" xmlns="http://www.w3.org/2000/svg">
<path d="M0 20C0 8.9543 8.9543 0 20 0C31.0457 0 40 8.9543 40 20C40 31.0457 31.0457 40 20 40C8.9543 40 0 31.0457 0 20Z" fill="#55ACEE"/>
<path d="M19.401 16.2582L19.443 16.9502L18.7435 16.8655C16.1974 16.5407 13.973 15.439 12.0844 13.5889L11.1611 12.6709L10.9233 13.3488C10.4197 14.86 10.7414 16.4559 11.7907 17.5293C12.3503 18.1225 12.2243 18.2072 11.2591 17.8541C10.9233 17.7412 10.6295 17.6564 10.6016 17.6988C10.5036 17.7977 10.8394 19.0829 11.1052 19.5913C11.4689 20.2975 12.2104 20.9895 13.0218 21.3991L13.7072 21.7239L12.8958 21.7381C12.1124 21.7381 12.0844 21.7522 12.1684 22.0488C12.4482 22.9668 13.5534 23.9413 14.7844 24.365L15.6518 24.6616L14.8964 25.1136C13.7772 25.7632 12.4622 26.1304 11.1471 26.1587C10.5176 26.1728 10 26.2293 10 26.2717C10 26.4129 11.7067 27.2038 12.7 27.5145C15.6798 28.4325 19.2191 28.0371 21.8772 26.4694C23.7658 25.3537 25.6543 23.1363 26.5357 20.9895C27.0113 19.8455 27.487 17.7553 27.487 16.7525C27.487 16.1028 27.529 16.0181 28.3124 15.2413C28.774 14.7894 29.2077 14.2951 29.2916 14.1538C29.4315 13.8855 29.4175 13.8855 28.7041 14.1256C27.515 14.5493 27.3471 14.4928 27.9346 13.8572C28.3683 13.4053 28.8859 12.5861 28.8859 12.346C28.8859 12.3037 28.6761 12.3743 28.4383 12.5014C28.1865 12.6426 27.6269 12.8545 27.2072 12.9816L26.4518 13.2217L25.7663 12.7556C25.3885 12.5014 24.8569 12.2189 24.5771 12.1342C23.8637 11.9365 22.7725 11.9647 22.129 12.1907C20.3803 12.8262 19.2751 14.4645 19.401 16.2582Z" fill="white"/>
</svg>
