<svg width="40" height="40" viewBox="0 0 40 40" xmlns="http://www.w3.org/2000/svg">
<path d="M34.1 5.9C30.4 2.1 25.3 0 20 0C14.7 0 9.6 2.1 5.9 5.9C2.1 9.6 0 14.7 0 20C0 25.3 2.1 30.4 5.9 34.1C9.6 37.9 14.7 40 20 40C25.3 40 30.4 37.9 34.1 34.1C37.9 30.4 40 25.3 40 20C40 14.7 37.9 9.6 34.1 5.9ZM32.5 32.5C29.2 35.8 24.7 37.7 20 37.7C15.3 37.7 10.8 35.9 7.5 32.5C4.2 29.2 2.3 24.7 2.3 20C2.3 15.3 4.1 10.8 7.5 7.5C10.8 4.2 15.3 2.3 20 2.3C24.7 2.3 29.2 4.1 32.5 7.5C35.8 10.8 37.7 15.3 37.7 20C37.7 24.7 35.8 29.2 32.5 32.5Z" fill="currentColor"/>
<path d="M20 5.90039C12.2 5.90039 5.90002 12.2004 5.90002 20.0004C5.90002 27.8004 12.2 34.1004 20 34.1004C27.8 34.1004 34.1 27.8004 34.1 20.0004C34.1 12.2004 27.8 5.90039 20 5.90039ZM20 32.0004C13.4 32.0004 8.00002 26.6004 8.00002 20.0004C8.00002 13.4004 13.4 8.00039 20 8.00039C26.6 8.00039 32 13.4004 32 20.0004C32 26.6004 26.6 32.0004 20 32.0004Z" fill="currentColor"/>
<path d="M25.5 19.3004H21V12.0004C21 11.4004 20.5 10.9004 19.9 10.9004C19.3 10.9004 18.8 11.4004 18.8 12.0004V20.3004C18.8 20.5004 18.8 20.7004 18.9 20.8004C19.1 21.1004 19.4 21.4004 19.8 21.4004H25.3C25.9 21.4004 26.4 20.9004 26.4 20.3004C26.6 19.8004 26.1 19.3004 25.5 19.3004Z" fill="currentColor"/>
</svg>
