<svg width="31" height="26" viewBox="0 0 31 26" fill="none" xmlns="http://www.w3.org/2000/svg">
<path d="M10.8448 3.53416C11.3311 3.53416 11.7253 3.13992 11.7253 2.65363V0.880532C11.7253 0.394244 11.3311 0 10.8448 0C10.3585 0 9.96423 0.394244 9.96423 0.880532V2.65363C9.96423 3.13992 10.3585 3.53416 10.8448 3.53416Z" fill="#EAC139"/>
<path d="M2.85651 6.75719L1.32092 5.87061C0.899732 5.62734 0.361199 5.77175 0.118113 6.19288C-0.125031 6.61407 0.0192587 7.1526 0.440388 7.39569L1.97598 8.28227C2.39617 8.52494 2.93511 8.38212 3.17878 7.95999C3.42193 7.5388 3.27764 7.00027 2.85651 6.75719Z" fill="#EAC139"/>
<path d="M1.97604 16.4898L0.440447 17.3763C-0.33677 17.825 -0.017665 19.0195 0.881535 19.0195C1.28053 19.0195 1.38132 18.8267 2.85651 18.0149C3.27764 17.7717 3.42193 17.2332 3.17878 16.812C2.9357 16.3909 2.39728 16.2465 1.97604 16.4898Z" fill="#EAC139"/>
<path d="M19.7136 8.28227L21.2492 7.39569C21.6703 7.15254 21.8146 6.61407 21.5715 6.19288C21.3283 5.77175 20.7899 5.62734 20.3687 5.87061L18.8331 6.75719C18.412 7.00033 18.2677 7.5388 18.5108 7.95999C18.7552 8.38324 19.2945 8.52435 19.7136 8.28227Z" fill="#EAC139"/>
<path d="M9.06506 14.6154C9.71859 11.035 12.6032 8.2924 16.2042 7.82008C14.9112 6.30457 12.9884 5.3418 10.8447 5.3418C6.96053 5.3418 3.80054 8.50185 3.80054 12.3861C3.80054 14.2412 4.52169 15.9308 5.69803 17.1901C6.5124 15.995 7.70106 15.083 9.06506 14.6154Z" fill="#EAC139"/>
<path d="M23.4166 13.6362C22.4195 11.1722 20.0029 9.50977 17.2937 9.50977C13.6612 9.50977 10.7289 12.437 10.6905 16.0466C8.18953 16.321 6.28711 18.4655 6.28711 20.9815C6.28711 23.7191 8.51433 25.9463 11.2519 25.9463C25.1063 25.9319 24.3482 25.9818 24.5895 25.9069C27.6671 25.5598 30.0555 22.9496 30.0555 19.7827C30.0555 16.1662 26.9653 13.3583 23.4166 13.6362Z" fill="white"/>
</svg>
