<svg width="40" height="40" viewBox="0 0 40 40" fill="none" xmlns="http://www.w3.org/2000/svg">
<path d="M0 20C0 8.9543 8.9543 0 20 0C31.0457 0 40 8.9543 40 20C40 31.0457 31.0457 40 20 40C8.9543 40 0 31.0457 0 20Z" fill="#D01F1F"/>
<path d="M30.2209 15.0613C29.9756 14.1188 29.2526 13.3767 28.3347 13.1248C26.6712 12.667 20 12.667 20 12.667C20 12.667 13.3289 12.667 11.6653 13.1248C10.7473 13.3767 10.0244 14.1188 9.77907 15.0613C9.33337 16.7695 9.33337 20.3337 9.33337 20.3337C9.33337 20.3337 9.33337 23.8977 9.77907 25.606C10.0244 26.5485 10.7473 27.2907 11.6653 27.5427C13.3289 28.0003 20 28.0003 20 28.0003C20 28.0003 26.6712 28.0003 28.3347 27.5427C29.2526 27.2907 29.9756 26.5485 30.2209 25.606C30.6667 23.8977 30.6667 20.3337 30.6667 20.3337C30.6667 20.3337 30.6667 16.7695 30.2209 15.0613Z" fill="white"/>
<path d="M18 23.9997V17.333L23.3333 20.6665L18 23.9997Z" fill="#D01F1F"/>
</svg>
