<?xml version="1.0" standalone="no"?>
<!DOCTYPE svg PUBLIC "-//W3C//DTD SVG 20010904//EN"
 "http://www.w3.org/TR/2001/REC-SVG-20010904/DTD/svg10.dtd">
<svg version="1.0" xmlns="http://www.w3.org/2000/svg"
 width="896.000000pt" height="896.000000pt" viewBox="0 0 896.000000 896.000000"
 preserveAspectRatio="xMidYMid meet">
<metadata>
Created by potrace 1.14, written by Peter Selinger 2001-2017
</metadata>
<g transform="translate(0.000000,896.000000) scale(0.100000,-0.100000)"
fill="#000000" stroke="none">
<path d="M1083 6283 c2 -1473 6 -2694 9 -2713 3 -19 9 -60 12 -90 10 -80 44
-245 68 -325 12 -38 22 -74 24 -80 1 -5 18 -55 39 -110 81 -221 227 -485 388
-705 72 -98 176 -229 212 -266 11 -12 49 -54 85 -94 102 -114 369 -377 462
-454 13 -11 70 -60 128 -109 58 -49 115 -98 127 -108 40 -33 206 -162 288
-223 44 -33 82 -62 85 -65 3 -3 12 -10 22 -16 26 -16 328 -229 341 -241 7 -6
17 -13 22 -15 6 -2 43 -27 84 -54 40 -28 81 -54 90 -60 9 -5 41 -26 71 -46
136 -89 207 -135 233 -149 15 -8 114 -67 220 -131 105 -64 236 -142 289 -173
l98 -57 67 39 c38 22 84 49 103 59 273 153 871 537 1146 734 49 36 106 77 124
90 147 105 542 418 646 514 224 204 327 305 460 451 49 54 99 109 112 121 12
13 22 26 22 28 0 3 8 14 18 24 35 40 79 94 117 147 11 15 25 32 30 38 6 6 28
38 50 71 22 33 43 62 46 65 17 15 164 272 211 370 113 234 200 519 223 732 4
35 10 72 14 83 3 11 6 1229 7 2708 l1 2687 -3399 0 -3398 0 3 -2677z m6543
-126 c-2 -1403 -7 -2571 -10 -2593 -34 -256 -92 -455 -187 -649 -16 -34 -29
-66 -29 -73 0 -7 -3 -12 -8 -12 -4 0 -15 -17 -25 -38 -25 -54 -55 -106 -121
-207 -52 -80 -182 -262 -196 -275 -3 -3 -15 -17 -26 -32 -73 -95 -204 -237
-360 -393 -185 -183 -249 -241 -449 -408 -38 -32 -79 -66 -90 -76 -41 -34
-290 -227 -331 -256 -23 -16 -102 -73 -176 -125 -171 -122 -215 -153 -236
-165 -9 -6 -89 -58 -177 -116 -167 -110 -425 -272 -485 -305 -19 -10 -37 -21
-40 -24 -7 -8 -131 -80 -137 -80 -3 0 -18 -9 -34 -21 l-30 -21 -222 133 c-122
74 -255 155 -294 181 -40 27 -75 48 -79 48 -3 0 -23 13 -43 28 -20 15 -48 34
-63 41 -16 8 -28 18 -28 23 0 4 -5 8 -10 8 -9 0 -278 176 -290 190 -3 3 -34
25 -70 49 -60 41 -407 298 -474 353 -62 49 -281 232 -292 242 -6 6 -44 40 -85
76 -102 90 -380 367 -470 470 -245 280 -432 561 -551 830 -51 115 -106 273
-124 360 -10 45 -25 129 -30 160 -3 19 -8 51 -11 70 -4 19 -8 1188 -10 2597
l-3 2562 3150 0 3150 0 -4 -2552z"/>
<path d="M1440 8555 c-8 -10 -11 -629 -10 -2442 0 -1335 2 -2446 4 -2468 17
-194 63 -385 138 -575 51 -127 248 -483 288 -520 3 -3 28 -37 56 -76 28 -38
58 -79 67 -90 48 -59 136 -164 162 -194 40 -46 368 -374 425 -425 25 -22 77
-67 115 -100 39 -33 72 -62 75 -65 3 -3 52 -44 110 -90 58 -46 107 -87 110
-90 9 -9 242 -184 335 -250 50 -35 92 -68 93 -72 2 -4 10 -8 17 -8 7 0 15 -4
17 -8 4 -11 547 -370 646 -427 9 -6 69 -41 132 -80 150 -91 167 -101 217 -127
l43 -22 42 24 c24 13 72 41 108 63 36 22 79 47 95 57 162 93 560 351 835 541
119 82 573 429 600 459 3 3 34 30 70 60 36 30 70 59 76 65 6 5 46 42 89 80
167 149 384 374 516 535 30 36 56 67 59 70 10 10 137 185 177 245 152 228 279
510 329 725 13 58 34 162 40 200 13 77 16 4990 3 5006 -17 20 -6062 20 -6079
-1z m6036 -38 c6 -6 5 -1447 0 -1456 -3 -4 -401 -8 -884 -8 -483 0 -883 -3
-889 -6 -6 -4 -9 -15 -7 -25 5 -16 55 -17 890 -17 487 0 888 -3 890 -7 6 -9 4
-3237 -2 -3328 -4 -66 -21 -184 -39 -275 -10 -52 -45 -167 -77 -255 -34 -93
-160 -346 -208 -416 -16 -25 -30 -49 -30 -54 0 -4 -3 -10 -7 -12 -5 -1 -21
-23 -38 -48 -194 -291 -490 -607 -901 -961 -16 -14 -66 -54 -109 -89 -44 -34
-82 -66 -85 -70 -3 -3 -50 -40 -105 -81 -55 -41 -102 -76 -105 -79 -3 -3 -21
-17 -40 -30 -19 -13 -37 -27 -40 -30 -8 -10 -231 -165 -370 -258 -47 -31 -86
-60 -88 -64 -2 -5 -7 -8 -12 -8 -5 0 -43 -23 -85 -51 -95 -63 -424 -269 -429
-269 -3 0 -40 -22 -83 -48 -43 -26 -94 -56 -114 -66 l-36 -19 -204 123 c-112
67 -223 136 -246 151 -23 16 -46 29 -52 29 -6 0 -11 5 -11 10 0 6 -5 10 -10
10 -10 0 -460 297 -470 310 -3 3 -12 10 -20 13 -8 4 -33 21 -55 37 -22 17 -51
38 -65 47 -21 15 -204 151 -235 175 -5 4 -50 40 -100 78 -693 541 -1170 1097
-1385 1615 -21 51 -51 132 -55 150 -3 11 -16 61 -29 110 -13 50 -27 110 -31
135 -4 25 -9 54 -11 65 -15 73 -18 377 -18 1830 l-1 1630 913 0 c858 0 913 1
918 17 3 10 3 21 1 25 -3 5 -413 8 -912 8 -598 0 -909 3 -913 10 -4 5 -7 334
-7 730 l0 720 80 5 c91 6 5916 3 5921 -3z"/>
<path d="M2085 8118 c-57 -12 -57 -11 -98 -37 -20 -12 -37 -29 -37 -38 0 -9
-6 -13 -15 -10 -21 9 -69 -69 -83 -133 -5 -23 -2 -143 4 -165 22 -82 86 -151
168 -185 31 -12 54 -26 51 -30 -8 -14 29 -21 102 -21 100 1 132 8 181 38 73
45 74 54 15 112 -29 28 -56 51 -62 51 -5 0 -25 -9 -43 -19 -64 -38 -159 -28
-208 21 -28 28 -41 56 -20 43 6 -3 7 1 4 9 -3 9 -9 14 -13 11 -4 -2 -8 1 -9 8
0 7 -3 24 -5 40 -2 15 0 30 6 34 6 3 7 1 3 -5 -4 -7 -2 -12 3 -12 6 0 11 8 11
19 0 10 17 36 38 58 34 34 44 39 77 37 44 -4 63 4 44 18 -11 7 -9 8 6 6 15 -2
21 -13 25 -44 l5 -41 65 0 66 0 1 76 c1 47 -3 82 -10 91 -43 56 -172 87 -272
68z m45 -48 c0 -5 -4 -10 -10 -10 -5 0 -7 -7 -4 -15 4 -8 2 -15 -4 -15 -6 0
-9 8 -7 18 2 9 4 20 4 25 1 11 21 8 21 -3z m30 -4 c0 -3 -4 -8 -10 -11 -5 -3
-10 -1 -10 4 0 6 5 11 10 11 6 0 10 -2 10 -4z m60 -11 c5 3 11 1 14 -4 4 -5
-2 -8 -11 -6 -10 2 -22 4 -26 4 -5 1 -5 6 -1 13 6 9 9 9 12 0 2 -7 8 -10 12
-7z m-146 -3 c3 -5 -1 -9 -9 -9 -8 0 -15 4 -15 9 0 4 4 8 9 8 6 0 12 -4 15 -8z
m-46 -14 c-2 -7 3 -12 11 -10 22 5 51 -8 51 -23 0 -11 -6 -12 -25 -5 -14 5
-25 7 -25 3 0 -4 -6 2 -14 12 -8 11 -12 23 -10 27 8 12 14 9 12 -4z m272 4 c0
-13 -12 -22 -22 -16 -10 6 -1 24 13 24 5 0 9 -4 9 -8z m-308 -37 c12 -16 9
-25 -8 -25 -9 0 -12 -5 -8 -12 6 -10 5 -10 -8 -1 -17 14 -28 8 -28 -16 0 -9
-11 -24 -24 -33 -23 -17 -24 -16 -29 2 -3 13 0 20 9 20 8 0 14 8 14 19 0 24
25 45 45 37 18 -7 20 10 3 18 -7 3 -4 4 7 3 11 -1 23 -6 27 -12z"/>
<path d="M2638 8115 c-71 -18 -151 -69 -171 -109 -50 -97 -59 -162 -37 -261
13 -59 25 -81 64 -123 37 -40 84 -65 150 -81 62 -15 168 -16 195 -1 12 6 21 8
21 5 0 -13 73 27 110 61 63 58 82 108 83 217 1 81 -2 98 -25 143 -34 64 -97
118 -164 139 -64 20 -169 25 -226 10z m172 -140 c50 -26 78 -78 78 -146 0 -96
-55 -159 -140 -161 -69 -1 -143 48 -156 102 -15 64 0 143 33 177 44 43 130 56
185 28z m-306 -180 c4 -10 -1 -15 -16 -15 -17 0 -18 2 -8 15 7 8 14 15 15 15
2 0 5 -7 9 -15z m37 -39 c5 3 9 3 9 0 0 -11 -59 -36 -65 -27 -3 5 4 12 15 16
11 3 20 12 21 18 0 8 2 8 6 -1 2 -6 9 -10 14 -6z m33 -39 c-3 -33 -4 -37 -13
-37 -5 0 -9 14 -9 30 1 18 6 29 12 27 6 -2 10 -11 10 -20z m-29 -5 c-14 -10
-18 -42 -6 -42 6 0 8 -7 5 -15 -5 -11 -10 -12 -25 -2 -10 6 -19 17 -19 24 0
15 28 43 43 43 8 0 8 -3 2 -8z m63 -64 c-3 -7 -18 -14 -34 -15 -20 -2 -25 0
-14 7 8 5 18 6 22 4 4 -3 8 0 8 5 0 6 5 11 11 11 6 0 9 -6 7 -12z m20 -43 c-3
-3 -9 2 -12 12 -6 14 -5 15 5 6 7 -7 10 -15 7 -18z m-18 -5 c0 -5 -5 -10 -11
-10 -5 0 -7 5 -4 10 3 6 8 10 11 10 2 0 4 -4 4 -10z m80 -15 c0 -2 -7 -5 -15
-9 -9 -3 -15 0 -15 9 0 9 6 12 15 9 8 -4 15 -7 15 -9z m36 -4 c-4 -5 0 -12 6
-14 7 -3 3 -6 -9 -6 -23 -1 -30 9 -16 22 10 10 25 8 19 -2z"/>
<path d="M2682 7963 c-18 -9 -42 -28 -52 -44 -25 -34 -36 -110 -21 -135 10
-17 11 -16 7 7 -6 35 35 119 69 143 24 17 54 24 109 25 34 1 9 12 -36 16 -27
2 -57 -3 -76 -12z"/>
<path d="M4055 8119 c-68 -9 -141 -45 -187 -92 -20 -21 -37 -42 -36 -45 1 -4
-4 -20 -11 -37 -22 -50 -24 -130 -7 -208 14 -63 22 -79 59 -113 47 -45 87 -72
114 -77 44 -9 73 -20 73 -28 0 -10 -29 -7 -47 4 -7 5 -13 4 -13 -2 0 -32 134
-46 233 -24 57 13 130 52 155 82 29 37 61 98 67 131 20 102 3 220 -32 220 -7
0 -13 7 -13 15 0 28 -64 103 -115 134 -36 22 -69 33 -110 37 -33 3 -64 6 -70
8 -5 1 -32 -1 -60 -5z m147 -155 c39 -28 59 -68 64 -125 8 -105 -53 -178 -147
-174 -50 2 -111 33 -134 69 -16 24 -36 106 -26 106 3 0 6 13 7 29 1 38 38 88
77 106 43 20 126 14 159 -11z m242 -147 c-1 -134 -48 -216 -159 -270 -45 -22
-135 -44 -120 -29 3 3 16 7 28 9 90 13 180 82 218 168 20 45 28 162 15 205 -7
21 -6 23 5 12 10 -9 14 -38 13 -95z m-551 -20 c4 3 7 1 7 -5 0 -7 -11 -12 -25
-12 -18 0 -23 4 -19 15 5 11 10 13 19 5 6 -5 15 -7 18 -3z m17 -48 c0 -15 -5
-19 -15 -15 -8 3 -18 -2 -23 -11 -8 -13 -10 -12 -14 5 -4 14 -2 19 7 16 6 -3
18 2 25 11 17 20 20 19 20 -6z m40 -34 c0 -33 -35 -68 -60 -60 -19 6 -19 8 -5
36 19 36 29 38 22 4 -3 -16 0 -24 7 -22 6 2 11 18 11 35 0 19 5 32 12 32 7 0
13 -11 13 -25z m30 -29 c0 -2 -8 -10 -17 -17 -16 -13 -17 -12 -4 4 13 16 21
21 21 13z m35 -36 c3 -5 0 -7 -8 -4 -8 3 -18 1 -22 -5 -8 -13 -25 -14 -25 -2
0 8 15 15 42 20 4 0 10 -3 13 -9z m-30 -50 c-3 -5 -11 -10 -16 -10 -6 0 -7 5
-4 10 3 6 11 10 16 10 6 0 7 -4 4 -10z m95 -14 c0 -2 -9 -6 -20 -9 -11 -3 -20
-1 -20 4 0 5 9 9 20 9 11 0 20 -2 20 -4z m17 -18 c-3 -8 -6 -5 -6 6 -1 11 2
17 5 13 3 -3 4 -12 1 -19z m53 -50 c0 -5 -18 -8 -40 -8 -22 0 -40 4 -40 8 0 5
18 8 40 8 22 -1 40 -4 40 -8z"/>
<path d="M4041 7953 c-34 -20 -48 -39 -57 -75 -1 -5 -2 -9 -4 -10 -6 -8 -6
-66 0 -82 5 -14 9 -4 14 32 11 88 80 145 164 138 19 -1 29 1 23 7 -20 20 -100
14 -140 -10z"/>
<path d="M4698 8114 c-3 -3 -49 -5 -101 -5 -107 1 -105 2 -98 -76 3 -40 5 -43
31 -43 24 0 37 -12 79 -69 l50 -69 -21 -38 c-11 -22 -24 -41 -27 -44 -4 -3
-20 -26 -36 -52 -25 -40 -35 -48 -65 -50 l-35 -3 -1 -57 c0 -35 4 -58 10 -59
6 -1 67 -2 136 -2 l125 -2 6 25 c5 20 7 17 8 -15 l1 -41 -125 1 c-69 1 -125
-3 -125 -7 0 -4 63 -8 141 -8 l140 0 -3 53 c-2 42 -6 52 -20 51 -13 -1 -18 6
-18 27 0 19 -5 29 -15 29 -18 0 -19 9 -1 33 19 25 27 21 61 -26 24 -32 31 -52
30 -84 0 -42 0 -43 33 -43 18 0 42 5 53 10 10 6 45 12 77 14 32 1 63 5 68 8 5
4 9 30 9 59 l0 54 -47 0 c-25 0 -48 2 -50 5 -42 53 -81 119 -80 134 0 10 10
27 21 38 12 10 21 22 21 27 0 7 11 22 50 68 5 7 10 17 10 22 0 5 15 11 33 13
32 3 32 4 35 61 3 66 20 59 -147 58 -58 -1 -106 -3 -108 -5 -2 -2 -5 -23 -6
-47 -2 -30 2 -48 14 -60 16 -16 16 -18 -3 -39 l-20 -21 -19 20 c-10 11 -19 24
-19 30 0 5 -5 11 -10 13 -6 2 -13 26 -15 53 -5 48 -15 71 -27 59z m210 -171
c-8 -10 -6 -13 7 -13 10 0 16 -3 13 -6 -4 -3 -8 -4 -11 -2 -3 2 -14 -5 -25
-15 -20 -18 -48 -15 -37 4 4 5 -3 13 -13 17 -15 5 -17 10 -8 17 20 17 39 17
33 0 -4 -8 -2 -15 2 -15 13 0 21 28 14 48 -5 14 -3 14 14 -3 14 -14 18 -24 11
-32z m-81 -52 c-3 -14 -1 -18 10 -14 10 4 14 1 11 -7 -5 -16 -26 -20 -53 -9
-15 6 -16 8 -4 8 9 1 19 10 22 21 3 11 8 20 12 20 4 0 5 -9 2 -19z m-155 -128
c-9 -3 -4 -12 15 -29 15 -13 23 -24 16 -24 -6 0 -15 5 -18 10 -13 21 -23 9
-21 -25 2 -20 -1 -38 -5 -41 -5 -3 -9 2 -9 11 0 9 -4 13 -10 10 -5 -3 -10 1
-10 10 0 9 5 13 11 10 6 -4 5 2 -2 13 -11 18 -10 24 5 41 11 12 24 21 30 20 6
0 5 -3 -2 -6z"/>
<path d="M5273 8050 c0 -33 4 -61 8 -61 5 -1 14 -3 19 -4 6 -1 14 -3 20 -4 15
-2 8 -18 -74 -193 -53 -112 -57 -118 -86 -118 -28 0 -36 -11 -31 -43 1 -5 -4
-5 -10 -1 -17 10 -29 -16 -29 -63 l0 -43 -52 -1 c-29 0 -79 -1 -110 -1 -32 0
-58 -5 -58 -10 0 -6 48 -8 118 -6 l117 3 5 47 c3 26 9 51 14 55 4 4 7 -1 6
-12 -5 -45 -6 -45 140 -45 l141 0 -3 58 c-3 48 -6 57 -20 54 -18 -3 -23 13
-13 41 5 10 22 13 73 11 98 -4 129 -12 135 -33 5 -20 -4 -42 -19 -44 -5 -1
-10 -23 -11 -49 l-3 -48 41 0 c22 0 38 4 35 9 -9 13 20 17 117 16 l88 -2 -3
56 c-3 50 -5 56 -25 56 -32 0 -48 21 -84 110 -17 44 -56 129 -85 190 -30 60
-54 115 -54 122 0 10 -36 13 -153 13 l-154 0 0 -60z m185 -67 c-6 -8 -18 -11
-25 -9 -11 4 -13 0 -8 -14 4 -11 2 -20 -4 -20 -6 0 -11 -7 -11 -16 0 -21 -57
-78 -62 -62 -3 7 8 23 24 36 16 13 28 29 27 36 -4 31 3 47 23 55 34 13 50 10
36 -6z m55 -90 c16 -40 16 -43 -1 -51 -21 -10 -78 0 -74 13 17 68 39 104 53
87 3 -4 13 -26 22 -49z m-186 -56 c-1 -12 -11 -31 -23 -43 -16 -16 -23 -18
-32 -7 -10 10 -7 16 13 29 14 9 25 23 25 30 0 8 4 14 9 14 6 0 9 -10 8 -23z
m63 -8 c0 -6 -4 -7 -10 -4 -5 3 -10 11 -10 16 0 6 5 7 10 4 6 -3 10 -11 10
-16z m-10 -26 c-1 -23 -19 -34 -45 -27 l-28 7 24 13 c27 15 49 18 49 7z m160
-9 c0 -8 -5 -12 -10 -9 -6 3 -15 -6 -21 -22 -8 -22 -12 -24 -19 -13 -8 12 -10
10 -10 -8 0 -20 -3 -21 -21 -12 -15 9 -18 15 -9 24 5 8 8 22 4 32 -5 18 -5 18
6 2 15 -23 33 -23 55 2 22 24 25 25 25 4z m30 -14 c0 -5 -5 -10 -11 -10 -5 0
-7 5 -4 10 3 6 8 10 11 10 2 0 4 -4 4 -10z m30 -14 c0 -3 -4 -8 -10 -11 -5 -3
-10 -1 -10 4 0 6 5 11 10 11 6 0 10 -2 10 -4z m-258 -21 c9 4 15 0 15 -8 0
-10 -13 -13 -44 -12 -47 2 -66 10 -30 12 12 1 23 7 26 14 2 8 5 8 11 0 3 -7
13 -9 22 -6z m-11 -48 c-1 -12 -15 -9 -19 4 -3 6 1 10 8 8 6 -3 11 -8 11 -12z"/>
<path d="M5473 7897 c-18 -39 -16 -55 3 -35 9 8 14 26 12 39 -3 23 -3 23 -15
-4z"/>
<path d="M6157 8098 c-17 -10 -17 -117 1 -127 12 -7 12 -12 2 -32 -7 -13 -19
-32 -28 -42 -14 -16 -17 -15 -38 20 -28 45 -29 53 -9 53 13 0 15 11 13 63 l-3
62 -120 0 c-161 0 -152 3 -151 -58 1 -50 2 -52 31 -55 34 -4 38 -8 116 -137
43 -72 58 -106 54 -122 -3 -13 -10 -23 -15 -23 -6 0 -10 -6 -10 -14 0 -9 -12
-16 -32 -18 -30 -3 -32 -5 -33 -50 -1 -25 1 -52 5 -58 10 -17 270 -23 271 -7
9 82 5 99 -23 111 l-28 12 40 55 c22 29 44 59 48 64 21 26 72 104 72 109 0 22
48 76 67 76 29 0 37 16 38 72 0 41 -3 48 -20 49 -87 4 -239 3 -248 -3z m117
-124 c9 -3 16 -11 16 -16 0 -6 -7 -8 -15 -4 -9 3 -15 0 -15 -9 0 -8 5 -15 11
-15 8 0 7 -5 -1 -16 -8 -8 -9 -14 -4 -12 5 2 10 -1 12 -7 2 -5 -1 -11 -7 -13
-6 -2 -13 8 -17 22 -3 14 -13 26 -21 26 -11 0 -10 5 4 25 21 28 17 27 37 19z
m36 -44 c-12 -22 -21 -26 -17 -7 2 10 17 26 25 27 1 0 -2 -9 -8 -20z m-295
-30 c-3 -5 -11 -10 -16 -10 -6 0 -7 5 -4 10 3 6 11 10 16 10 6 0 7 -4 4 -10z
m42 -1 c-9 -6 -15 -14 -12 -19 3 -5 1 -11 -4 -14 -5 -4 -13 -1 -16 5 -7 11 22
38 40 38 6 0 2 -4 -8 -10z m27 -49 c8 -17 10 -28 5 -25 -5 4 -12 -1 -15 -9 -7
-17 -39 -22 -48 -7 -3 4 1 17 9 27 13 17 14 18 15 2 0 -10 4 -18 9 -18 15 0
23 18 11 25 -10 6 -14 35 -6 35 3 0 11 -14 20 -30z m101 -10 c3 -5 1 -10 -4
-10 -6 0 -11 5 -11 10 0 6 2 10 4 10 3 0 8 -4 11 -10z m-2 -61 c-9 -9 -12 -7
-10 9 1 14 5 18 11 12 7 -7 6 -14 -1 -21z m-35 -20 c-10 -7 -10 -9 2 -9 12 0
12 -2 1 -12 -10 -10 -15 -10 -18 -1 -2 7 -11 9 -19 6 -7 -3 -11 -9 -8 -14 3
-5 0 -9 -5 -9 -6 0 -11 -7 -11 -15 0 -8 5 -15 11 -15 5 0 7 -4 4 -10 -23 -37
-47 28 -29 80 4 11 7 12 13 2 8 -13 41 -6 41 9 0 4 7 6 16 2 13 -5 13 -7 2
-14z m-88 -119 c0 -5 -2 -10 -4 -10 -3 0 -8 5 -11 10 -3 6 -1 10 4 10 6 0 11
-4 11 -10z"/>
<path d="M6559 8090 c-3 -33 1 -102 6 -110 3 -4 14 -6 25 -3 14 4 20 0 20 -10
0 -19 -51 -135 -101 -232 -32 -61 -40 -69 -65 -70 -29 0 -29 -1 -29 -60 l0
-60 125 -1 c69 0 132 2 141 4 23 5 20 108 -3 104 -20 -3 -28 17 -17 43 6 17 8
17 8 3 2 -31 16 -20 34 25 10 23 18 45 18 49 0 4 11 33 24 63 26 58 30 75 17
75 -6 0 -54 -108 -58 -130 -3 -17 -25 -62 -29 -58 -3 3 11 45 31 94 20 49 36
95 37 102 1 21 35 13 42 -10 4 -13 22 -62 41 -110 45 -112 52 -148 30 -148 -9
0 -16 -8 -17 -17 0 -10 -2 -31 -3 -46 -1 -15 3 -32 9 -36 5 -5 67 -9 138 -9
l127 -2 0 60 c0 60 0 60 -30 60 -34 0 -45 17 -81 120 -12 35 -50 122 -85 194
l-63 131 -146 0 c-122 0 -145 -2 -146 -15z m177 -112 c5 -7 0 -9 -14 -6 -13 4
-23 0 -26 -9 -4 -8 -1 -11 5 -7 8 5 8 1 0 -13 -6 -11 -8 -23 -4 -26 3 -4 -6
-12 -21 -18 -19 -9 -23 -15 -16 -25 8 -9 6 -12 -7 -10 -10 0 -21 6 -25 11 -10
13 -10 31 -1 22 11 -12 52 34 46 51 -11 27 47 56 63 30z m-86 -58 c0 -5 -5
-10 -11 -10 -5 0 -7 5 -4 10 3 6 8 10 11 10 2 0 4 -4 4 -10z m-35 -91 c-5 -14
-1 -19 14 -19 15 0 19 5 14 18 -5 14 -3 14 9 -2 22 -28 16 -51 -13 -51 -19 0
-25 -6 -27 -28 -2 -15 -9 -27 -15 -27 -7 0 -6 -4 3 -10 9 -6 10 -10 3 -10 -16
0 -28 21 -16 29 17 10 23 51 8 51 -7 0 -15 -5 -17 -12 -3 -8 -7 -6 -11 4 -3
10 4 27 19 43 13 14 21 31 18 37 -4 7 -2 8 5 4 6 -4 9 -16 6 -27z m-55 -63 c0
-3 -4 -8 -10 -11 -5 -3 -10 -1 -10 4 0 6 5 11 10 11 6 0 10 -2 10 -4z m80 -16
c0 -5 -5 -10 -11 -10 -5 0 -7 5 -4 10 3 6 8 10 11 10 2 0 4 -4 4 -10z"/>
<path d="M3245 8089 c-3 -3 -4 -31 -3 -62 2 -52 4 -57 24 -57 13 0 25 -3 27
-7 3 -5 -10 -42 -28 -83 -19 -41 -32 -77 -30 -79 8 -7 35 21 35 35 0 8 5 14
11 14 6 0 8 -9 4 -21 -5 -14 -3 -19 3 -15 6 3 13 2 17 -4 12 -20 26 -10 15 10
-15 28 -6 25 14 -4 14 -23 14 -26 0 -41 -12 -12 -19 -13 -30 -4 -11 9 -14 8
-14 -5 0 -10 4 -15 9 -11 5 3 12 1 16 -4 3 -6 -3 -15 -14 -21 -17 -9 -19 -8
-15 5 4 8 1 15 -5 15 -7 0 -8 8 -1 28 l10 27 -19 -24 c-10 -13 -20 -19 -22
-13 -5 15 -23 19 -29 7 -2 -5 -18 -35 -35 -65 -26 -46 -35 -55 -58 -54 -18 1
-27 -4 -28 -15 -7 -101 -2 -114 40 -106 16 3 21 0 18 -10 -3 -7 0 -17 6 -22
10 -7 169 -10 240 -4 14 1 17 11 17 55 0 30 -4 58 -10 61 -9 6 -15 -29 -11
-62 2 -18 -36 -35 -77 -35 -104 0 -152 3 -152 10 0 4 39 7 88 6 123 -2 127 -1
126 44 -2 68 -4 72 -24 72 -13 0 -20 7 -20 19 0 11 6 18 16 17 11 -1 23 20 40
64 14 36 31 79 39 97 8 17 15 36 15 42 0 15 -20 14 -20 -1 0 -7 -9 -24 -20
-38 -16 -19 -14 -13 6 29 30 61 39 58 67 -19 9 -25 22 -58 28 -75 7 -16 13
-32 14 -35 29 -97 31 -115 16 -105 -22 13 -36 -84 -15 -104 3 -3 63 -6 135 -6
98 0 129 3 130 12 0 7 1 29 1 48 0 61 -1 64 -28 67 -28 3 -57 47 -83 123 -7
22 -39 94 -71 160 -32 66 -60 127 -62 135 -4 12 -30 15 -152 15 -81 0 -149 -2
-151 -6z m170 -119 c-3 -5 -10 -10 -16 -10 -5 0 -9 5 -9 10 0 6 7 10 16 10 8
0 12 -4 9 -10z m-38 -7 c-4 -3 -2 -12 5 -20 8 -11 7 -12 -6 -7 -9 3 -16 9 -16
13 0 9 11 21 18 21 3 0 2 -3 -1 -7z m-21 -69 c-15 -16 -25 -8 -19 15 4 15 8
17 17 8 9 -8 10 -15 2 -23z m-26 -25 c0 -5 -7 -9 -15 -9 -9 0 -12 6 -8 17 5
12 3 14 -7 8 -9 -5 -11 -4 -6 4 6 9 11 9 22 0 8 -6 14 -15 14 -20z m63 -77
c-3 -12 -10 -22 -15 -22 -5 0 -7 3 -5 8 2 4 7 16 11 26 9 25 17 16 9 -12z
m-20 -47 c-3 -9 -8 -14 -10 -11 -3 3 -2 9 2 15 9 16 15 13 8 -4z m-104 -24
c14 -12 18 -22 11 -26 -13 -8 -42 13 -35 25 3 5 -1 11 -7 13 -8 3 -8 6 -2 6 6
1 21 -8 33 -18z"/>
<path d="M3583 8044 c44 -87 97 -206 116 -259 23 -63 47 -102 56 -93 3 3 -2
23 -11 44 -9 22 -20 48 -24 59 -8 22 -105 231 -118 254 -5 8 -14 17 -21 19
-10 3 -9 -3 2 -24z"/>
<path d="M4745 8045 c2 -37 15 -43 15 -7 0 18 -4 32 -8 32 -4 0 -7 -11 -7 -25z"/>
<path d="M5083 8021 l2 -51 -37 0 c-30 0 -41 -6 -55 -27 -10 -16 -20 -30 -23
-33 -17 -15 -69 -104 -64 -109 6 -6 21 11 87 98 31 41 44 50 74 53 36 3 36 3
36 51 0 27 -5 53 -11 59 -8 8 -10 -4 -9 -41z"/>
<path d="M5610 8066 c0 -2 16 -35 36 -73 20 -37 54 -113 76 -168 22 -54 45
-107 52 -117 19 -27 27 -9 10 23 -8 16 -15 31 -15 34 -1 27 -137 305 -149 305
-5 0 -10 -2 -10 -4z"/>
<path d="M6449 8053 c-1 -10 0 -30 1 -46 2 -27 -6 -34 -47 -40 -21 -3 -45 -28
-69 -72 -27 -49 -39 -70 -44 -75 -25 -25 -100 -133 -96 -138 4 -3 14 3 24 14
33 37 132 171 132 179 0 5 11 23 25 40 19 26 30 31 50 28 14 -3 31 -1 38 5 16
13 15 114 -1 120 -7 2 -12 -5 -13 -15z"/>
<path d="M6890 8067 c0 -2 17 -39 39 -83 51 -104 77 -163 86 -194 12 -41 45
-100 55 -100 10 0 -16 77 -32 95 -4 5 -8 15 -8 22 0 21 -120 263 -131 263 -5
0 -9 -2 -9 -3z"/>
<path d="M2386 7998 c-5 -15 -6 -43 -3 -63 9 -65 1 -75 -59 -75 -30 0 -54 -4
-54 -8 0 -9 129 -11 131 -2 5 24 4 130 -2 150 l-6 25 -7 -27z"/>
<path d="M4530 7962 c0 -5 7 -13 16 -16 10 -4 14 -1 12 6 -5 15 -28 23 -28 10z"/>
<path d="M6113 7952 c-8 -5 -9 -12 -2 -22 8 -13 10 -13 19 0 18 27 9 39 -17
22z"/>
<path d="M3061 7913 c14 -38 9 -154 -9 -210 -25 -77 -115 -157 -197 -178 -49
-12 -167 -15 -202 -6 -42 12 -43 -2 -2 -19 32 -14 156 -21 174 -11 6 3 19 6
30 7 30 1 106 39 138 67 27 25 81 97 71 97 -2 0 0 9 6 21 27 50 19 236 -11
255 -5 3 -4 -7 2 -23z"/>
<path d="M2025 7811 c-3 -5 -1 -12 5 -16 5 -3 10 1 10 9 0 18 -6 21 -15 7z"/>
<path d="M5395 7690 c-17 -6 -16 -8 10 -13 46 -9 144 -6 151 4 3 5 -19 10 -48
10 -29 1 -62 3 -73 4 -11 1 -29 -1 -40 -5z"/>
<path d="M5857 7623 c-4 -3 -7 -26 -7 -49 0 -24 -5 -46 -11 -49 -6 -4 -57 -7
-115 -7 -57 0 -107 -4 -110 -9 -3 -6 48 -8 128 -7 l133 3 -3 60 c-4 64 -5 69
-15 58z"/>
<path d="M6247 7622 c-4 -4 -7 -27 -8 -50 -2 -23 -5 -43 -8 -43 -4 -1 -55 -3
-116 -4 -147 -4 -141 -3 -128 -16 12 -12 23 -13 143 -11 41 1 86 2 99 2 33 0
39 12 35 72 -3 52 -8 66 -17 50z"/>
<path d="M3812 7581 c1 -60 -4 -63 -101 -61 -128 4 -147 2 -134 -11 13 -13
220 -19 243 -8 12 5 16 21 14 56 -2 61 -2 63 -13 63 -6 0 -10 -18 -9 -39z"/>
<path d="M5438 7613 c-3 -4 -4 -23 -3 -41 1 -18 -3 -36 -9 -40 -6 -3 -59 -6
-118 -7 -63 0 -108 -4 -108 -10 0 -6 51 -10 127 -10 l128 0 3 49 c3 45 -9 80
-20 59z"/>
<path d="M6714 7580 c1 -39 -11 -63 -30 -59 -5 1 -13 0 -19 -1 -10 -2 -102 0
-159 3 -16 1 -31 -4 -33 -10 -5 -15 -10 -14 127 -17 134 -4 141 0 138 66 -4
62 -25 78 -24 18z"/>
<path d="M7130 7576 c0 -55 -7 -58 -133 -53 -82 3 -120 -4 -105 -18 4 -4 61
-8 128 -9 138 -2 137 -2 135 77 -2 58 -25 61 -25 3z"/>
<path d="M2030 7526 c0 -2 7 -7 16 -10 8 -3 12 -2 9 4 -6 10 -25 14 -25 6z"/>
<path d="M5131 7220 c-18 -4 -28 -18 -42 -62 -9 -31 -20 -70 -22 -86 -7 -42
-41 -113 -67 -140 -24 -25 -60 -42 -91 -42 -15 0 -17 3 -9 18 36 64 53 198 31
241 -32 58 -102 68 -178 25 l-42 -24 -3 22 c-2 18 -10 23 -45 25 -36 2 -47 -3
-42 -19 0 -2 -5 -16 -11 -33 -7 -16 -13 -37 -15 -45 -26 -118 -52 -175 -100
-220 -29 -28 -54 -34 -73 -18 -16 14 -10 85 13 163 14 44 14 51 0 61 -8 6 -26
10 -41 10 -22 -2 -29 -11 -51 -66 -28 -71 -69 -134 -104 -164 -17 -14 -28 -17
-48 -10 -24 9 -26 13 -24 67 3 71 41 147 96 191 32 25 47 30 100 32 47 2 70
-2 93 -17 30 -18 32 -18 48 -1 15 18 15 20 -2 35 -50 45 -193 56 -268 21 -85
-40 -174 -160 -174 -234 0 -39 -60 -103 -92 -98 -21 3 -23 7 -20 52 1 27 11
76 22 110 25 79 30 139 14 161 -21 28 -90 29 -139 1 -23 -14 -47 -32 -55 -40
-21 -26 -28 -18 -23 23 l5 40 -46 -2 c-45 -1 -47 -2 -57 -42 -5 -22 -29 -109
-53 -193 -40 -143 -42 -154 -25 -162 30 -16 67 -12 79 10 6 11 13 39 16 62 10
75 35 161 55 190 60 83 158 96 144 18 -8 -50 -16 -86 -25 -120 -17 -60 -12
-141 8 -156 38 -30 100 -14 161 42 28 24 41 31 41 21 0 -9 11 -29 24 -44 20
-23 32 -29 58 -27 18 1 42 3 52 3 20 1 106 83 106 101 0 5 4 10 10 10 5 0 9
-3 9 -7 -5 -30 4 -74 17 -87 31 -31 116 -10 149 37 20 28 20 7 0 -68 -8 -31
-17 -75 -20 -98 -4 -23 -10 -60 -14 -82 -4 -22 -7 -51 -6 -65 0 -23 3 -25 50
-25 l50 0 8 60 c4 33 17 102 28 153 l21 93 36 -8 c77 -15 138 -8 180 20 24 16
60 28 87 31 25 2 57 11 70 20 36 24 44 20 36 -16 -12 -58 -9 -63 36 -65 24 -1
45 2 47 6 7 10 17 68 20 109 2 18 5 34 7 37 10 9 56 12 78 4 21 -8 23 -13 18
-67 -7 -87 -2 -91 98 -88 90 3 132 16 51 16 l-46 0 2 69 c2 77 -9 101 -49 101
-22 0 -21 4 24 48 27 26 61 72 76 102 28 55 28 55 7 72 -26 21 -59 12 -72 -21
-6 -14 -16 -37 -22 -50 -16 -35 -98 -123 -134 -144 l-31 -17 10 32 c6 18 21
72 33 120 l23 86 -21 4 c-11 2 -32 2 -45 -2z m-289 -102 c25 -47 -4 -171 -42
-181 -14 -4 -20 -14 -20 -36 0 -37 -22 -51 -79 -51 -31 0 -44 5 -55 23 -14 20
-13 31 13 120 21 71 35 103 52 115 55 40 112 44 131 10z"/>
<path d="M3067 6424 c-1 -1 -33 -5 -72 -9 -176 -17 -227 -30 -368 -92 -206
-90 -363 -249 -441 -447 -28 -69 -32 -82 -42 -146 -3 -19 -8 -38 -10 -42 -7
-10 -5 -198 1 -233 33 -175 104 -333 214 -478 69 -91 89 -113 283 -310 201
-202 269 -287 293 -364 10 -30 27 -63 38 -74 23 -21 37 -25 37 -10 0 6 16 9
35 8 26 -2 35 -7 35 -19 0 -10 4 -18 9 -18 5 0 8 7 7 16 -1 13 8 17 42 16 89
-1 83 2 76 -41 -3 -22 -7 -53 -8 -70 0 -17 -4 -31 -8 -31 -6 0 -21 57 -23 85
0 6 -9 11 -20 13 -15 2 -20 -3 -21 -20 -1 -13 -5 -38 -9 -56 l-6 -33 48 3 48
3 3 54 c6 90 13 101 67 96 42 -4 47 -3 65 28 11 17 20 39 20 47 0 45 113 184
300 370 233 233 292 305 393 490 71 130 105 277 101 435 -5 219 -82 404 -229
550 -56 56 -178 146 -205 151 -3 0 -34 14 -70 31 -88 40 -142 59 -225 78 -83
20 -249 29 -240 14 6 -9 9 -200 18 -1039 1 -129 -1 -257 -6 -285 -4 -27 -10
-122 -12 -210 -3 -88 -8 -180 -11 -205 -3 -25 -6 -71 -7 -102 -2 -57 -2 -57
-31 -55 -29 2 -29 3 -32 67 -3 71 -20 233 -27 265 -3 11 -8 49 -12 85 -4 36
-8 67 -10 70 -2 3 -6 35 -9 70 -3 36 -9 97 -13 135 -9 96 -10 621 -1 720 12
135 18 189 22 220 11 77 19 111 27 126 4 9 7 18 5 20 -2 2 8 29 23 59 19 40
31 54 44 52 9 -2 17 1 17 7 0 7 -94 11 -103 5z m-22 -32 c-26 -22 -75 -88 -75
-101 0 -5 -6 -16 -13 -23 -21 -21 -65 -146 -82 -233 -8 -44 -18 -91 -21 -105
-7 -32 -12 -79 -29 -300 -9 -114 -5 -260 9 -333 13 -66 38 -186 46 -217 5 -19
12 -51 15 -70 6 -34 22 -87 72 -236 13 -39 24 -88 26 -109 2 -32 -1 -38 -19
-41 -27 -4 -59 35 -120 149 -76 145 -139 324 -149 426 -2 20 -6 47 -10 61 -20
90 -29 210 -29 385 0 199 9 307 29 346 8 15 15 33 15 40 0 6 18 48 40 93 80
163 199 273 305 284 6 1 1 -6 -10 -16z m313 -12 c33 -27 85 -96 114 -155 25
-49 68 -189 84 -270 4 -22 9 -47 11 -55 19 -89 25 -460 9 -540 -3 -14 -8 -44
-10 -65 -6 -56 -16 -116 -23 -145 -3 -14 -7 -29 -9 -35 -1 -5 -5 -26 -9 -45
-9 -55 -25 -112 -40 -152 -8 -21 -12 -38 -8 -38 3 0 -1 -8 -10 -17 -8 -10 -16
-22 -16 -28 -2 -18 -33 -110 -41 -118 -4 -5 -2 17 6 50 8 32 17 74 20 93 3 19
7 37 9 40 17 27 39 330 25 330 -6 0 -9 -3 -8 -7 2 -7 -4 -50 -18 -138 -8 -47
-55 -225 -69 -260 -59 -148 -82 -191 -63 -119 19 72 45 221 53 304 2 25 7 65
10 90 3 25 8 74 11 110 3 36 7 76 9 90 15 128 19 198 19 340 0 145 -5 239 -18
305 -2 11 -6 36 -10 55 -3 19 -8 46 -11 60 -3 13 -7 42 -10 63 -4 22 -17 76
-31 121 -13 44 -26 89 -28 98 -3 9 -12 28 -21 41 l-16 25 32 -5 c18 -3 44 -13
57 -23z m-508 -20 c-14 -11 -29 -20 -34 -20 -14 0 -96 -68 -139 -114 -74 -80
-165 -242 -180 -323 -2 -10 -7 -25 -10 -33 -13 -33 -29 -173 -30 -265 0 -71
11 -244 17 -254 3 -3 7 -26 11 -50 3 -24 16 -69 28 -100 12 -31 21 -58 22 -61
0 -3 11 -32 24 -65 39 -96 74 -158 193 -339 58 -89 51 -100 -25 -35 -48 41
-177 199 -177 216 0 6 -9 18 -20 28 -11 10 -20 24 -20 30 0 7 -9 23 -20 36
-26 31 22 -63 74 -146 l38 -60 -37 40 c-53 59 -148 206 -183 285 -79 177 -98
269 -96 465 1 149 25 259 80 370 54 111 119 185 241 278 89 68 183 131 183
123 0 -2 17 2 38 9 46 16 55 10 22 -15z m671 0 c84 -27 114 -44 189 -110 72
-64 136 -149 175 -235 51 -109 65 -156 81 -265 7 -46 8 -258 1 -290 -3 -14 -8
-43 -11 -65 -6 -49 -43 -179 -61 -220 -27 -60 -96 -201 -108 -220 -19 -30 -71
-109 -80 -120 -4 -5 -32 -43 -62 -84 -30 -41 -55 -71 -55 -66 0 4 24 49 54 99
59 100 149 276 141 276 -2 0 -26 -36 -52 -81 -85 -142 -93 -155 -153 -234 -47
-63 -130 -153 -130 -141 0 9 47 83 84 132 43 56 84 144 146 309 64 171 107
303 117 358 9 54 10 289 1 344 -28 167 -92 330 -179 458 -60 88 -84 115 -134
148 -48 32 -45 33 36 7z m-247 -201 c2 -8 6 -23 10 -34 14 -36 17 -49 33 -130
28 -145 35 -267 19 -316 -14 -43 -40 -45 -44 -4 -2 17 -9 36 -14 43 -6 7 -12
23 -12 35 -1 12 -6 28 -11 36 -9 16 -17 354 -8 385 5 19 22 10 27 -15z m-262
-11 c2 -29 1 -40 -7 -108 -10 -86 -26 -282 -29 -355 -1 -24 -6 -31 -27 -33
-41 -5 -51 18 -52 120 -2 140 12 212 65 331 32 70 47 83 50 45z m-357 -80 c-2
-7 -6 -29 -9 -48 -14 -106 -19 -126 -31 -135 -7 -6 -16 -36 -20 -68 -6 -48
-10 -57 -27 -57 -14 0 -18 5 -14 15 3 8 1 15 -5 15 -10 0 -7 38 8 99 9 39 83
191 94 191 4 0 7 -6 4 -12z m990 -43 c11 -26 33 -97 41 -130 1 -5 7 -29 12
-52 5 -23 8 -57 6 -75 -2 -18 -6 -57 -8 -86 -6 -83 -18 -83 -18 1 -1 16 -6 27
-14 27 -12 0 -21 51 -14 85 1 5 -5 14 -13 20 -16 12 -30 95 -15 95 5 0 7 8 4
18 -11 34 -17 132 -10 144 6 9 9 8 12 -2 2 -8 10 -28 17 -45z m-1075 -279 c0
-3 -4 -8 -10 -11 -5 -3 -10 -1 -10 4 0 6 5 11 10 11 6 0 10 -2 10 -4z"/>
<path d="M5435 5824 c-33 -20 -74 -41 -91 -45 -17 -5 -43 -20 -57 -33 -63 -59
-129 -94 -160 -87 -9 1 -62 -33 -85 -56 -7 -7 -17 -13 -22 -13 -15 0 -70 -52
-65 -60 3 -5 -3 -13 -13 -19 -10 -5 -27 -28 -37 -50 -9 -22 -23 -41 -30 -43
-7 -2 -28 -23 -46 -47 -37 -48 -40 -50 -114 -83 -87 -38 -190 -116 -291 -221
-84 -86 -180 -193 -219 -243 -10 -13 -45 -20 -150 -30 -58 -6 -163 -49 -189
-77 -6 -7 -24 -27 -40 -45 l-30 -32 55 16 c30 9 69 22 87 30 17 7 32 11 32 9
0 -2 19 2 41 10 56 20 59 19 59 -14 0 -18 -8 -34 -21 -43 l-21 -14 22 -39 c12
-22 31 -52 41 -67 28 -39 24 -49 -18 -42 -47 7 -56 14 -78 64 -10 22 -20 39
-21 37 -2 -2 3 -27 11 -57 8 -30 13 -55 12 -55 -111 -56 -153 -79 -159 -84
-11 -10 -20 -91 -10 -91 5 0 53 32 107 70 54 39 103 70 108 70 5 0 24 -15 42
-32 18 -18 50 -49 71 -68 l39 -35 -30 35 c-17 19 -34 38 -39 41 -15 12 3 26
27 22 17 -3 38 -28 72 -84 26 -43 49 -79 51 -79 2 0 26 35 54 78 27 42 54 82
60 89 5 7 10 15 10 18 0 4 40 70 57 94 8 10 33 -26 35 -49 0 -14 -29 -91 -65
-173 -58 -127 -65 -150 -55 -167 7 -11 17 -20 23 -20 5 0 43 98 83 218 121
356 108 328 166 364 28 18 61 33 73 34 12 1 38 19 58 40 20 21 58 62 84 89 54
56 171 212 221 293 32 53 33 55 26 137 l-7 84 31 -15 c16 -9 30 -21 31 -27 0
-7 2 -21 4 -32 2 -11 5 -37 7 -58 l2 -38 38 42 c21 23 40 50 43 60 4 11 11 19
16 19 20 0 7 21 -53 85 l-63 67 -37 -43 -37 -43 13 57 c7 31 11 58 9 61 -3 2
10 12 29 22 l33 18 -25 6 c-35 9 -47 3 -62 -31 -12 -26 -48 -42 -48 -20 0 11
158 161 170 161 27 0 111 -132 135 -213 11 -38 11 -47 -6 -81 l-18 -37 26 3
c24 3 27 -3 60 -97 42 -122 56 -140 49 -65 l-5 55 36 -69 c43 -81 69 -95 177
-102 101 -7 113 -11 120 -37 3 -13 17 -29 31 -35 14 -6 34 -26 45 -44 11 -18
20 -28 20 -23 0 6 -16 36 -35 68 -19 32 -35 61 -35 64 0 11 106 -4 141 -21
l37 -17 -24 -24 c-13 -13 -24 -31 -24 -41 0 -9 -10 -30 -22 -46 -28 -40 -31
-107 -7 -148 21 -34 27 -35 76 -15 38 16 64 19 61 8 -5 -22 16 -73 47 -112 19
-24 35 -47 35 -51 0 -11 -54 1 -62 14 -5 8 -8 7 -8 -2 0 -7 9 -22 19 -34 11
-11 31 -44 46 -72 15 -31 44 -66 75 -90 52 -41 71 -73 49 -86 -15 -10 -29 -5
-94 33 l-50 28 46 -43 c26 -24 89 -81 139 -128 51 -47 114 -104 139 -127 25
-24 49 -43 53 -43 9 0 29 36 23 42 -12 11 39 155 60 170 5 4 6 8 1 8 -5 0 -4
6 2 13 21 26 120 224 131 261 18 69 0 60 -50 -25 -27 -45 -49 -83 -49 -85 0
-4 -74 -129 -80 -134 -3 -3 -14 -22 -25 -44 -11 -21 -25 -40 -31 -43 -7 -2
-35 7 -62 21 -40 20 -49 30 -45 45 3 11 15 22 28 25 14 4 24 16 28 34 3 15 15
38 26 51 12 13 21 27 21 32 0 4 38 60 85 123 93 128 108 152 103 167 -2 5 -32
-29 -68 -75 -36 -47 -72 -86 -80 -86 -8 0 -34 -9 -57 -19 -38 -18 -41 -18 -36
-3 3 9 11 24 18 32 6 8 30 47 52 85 45 77 170 256 187 267 17 11 19 2 18 -74
-1 -40 2 -66 5 -58 3 8 20 47 38 85 17 39 40 92 50 118 18 48 38 74 28 37 -3
-11 -1 -20 5 -20 16 0 30 30 25 51 -10 36 38 157 113 286 19 32 19 32 -4 53
-12 11 -22 27 -22 35 0 7 -3 20 -6 28 -5 13 0 13 30 -1 20 -9 36 -21 37 -27 0
-5 2 -17 4 -25 24 -92 29 -121 40 -227 4 -39 -6 -56 -19 -34 -3 5 -15 11 -26
14 -18 5 -19 4 -5 -24 9 -16 15 -41 14 -56 -1 -37 4 -53 23 -83 15 -22 27 -60
44 -139 3 -14 7 -28 10 -32 3 -5 -26 -22 -64 -39 l-68 -31 3 -81 c1 -45 5 -83
8 -86 3 -3 13 2 22 10 30 26 74 44 166 67 81 21 91 21 138 8 l50 -15 -3 51
c-3 49 -5 53 -43 72 -22 11 -48 25 -57 30 -10 6 -27 47 -43 105 -14 52 -28
102 -30 110 -8 29 -36 136 -46 173 -6 21 -14 35 -19 32 -6 -4 -10 2 -10 12 0
36 -69 215 -91 240 -24 25 -70 53 -87 53 -9 0 -64 -85 -97 -148 -18 -36 -24
-59 -27 -106 -3 -32 -37 -57 -170 -126 -60 -31 -68 -39 -78 -76 -10 -35 -15
-40 -35 -36 -14 2 -44 -5 -68 -17 -56 -27 -71 -27 -88 5 -17 33 -76 73 -191
131 -50 25 -110 63 -132 83 -58 52 -86 69 -102 63 -8 -3 -11 -9 -9 -14 9 -14
-41 -22 -72 -12 -28 10 -30 13 -79 145 -7 20 -15 47 -18 60 -6 33 -174 381
-189 390 -20 13 -29 10 -92 -28z m75 -114 c0 -24 35 -104 61 -141 11 -16 17
-29 14 -29 -9 0 -24 17 -64 70 -55 72 -67 80 -102 68 -20 -7 -34 -7 -40 -1 -6
6 7 16 38 27 26 9 55 21 63 25 19 11 30 4 30 -19z m-110 -168 c0 -4 16 -14 35
-21 40 -14 45 -26 13 -34 -14 -4 -28 0 -38 11 -21 22 -32 52 -20 52 6 0 10 -4
10 -8z m1083 -619 c-3 -10 -23 -64 -45 -120 l-40 -102 -41 -7 c-101 -18 -157
-11 -253 31 -44 19 -52 27 -47 44 3 12 9 21 14 21 5 0 38 18 72 39 59 37 66
39 164 43 56 3 108 1 116 -4 11 -6 17 -3 22 12 3 11 10 20 15 20 4 0 10 9 13
20 3 11 8 20 11 20 3 0 3 -8 -1 -17z"/>
<path d="M5550 4881 c-16 -31 -12 -45 23 -79 32 -32 70 -42 82 -22 12 19 41
10 75 -25 51 -52 54 -32 7 39 -34 52 -51 67 -92 85 -62 26 -81 26 -95 2z"/>
<path d="M2535 4580 c-3 -11 -12 -26 -18 -32 -11 -12 -61 -88 -121 -185 -24
-40 -27 -41 -57 -33 -18 6 -38 6 -48 0 -16 -8 -125 40 -238 106 -23 13 -44 21
-46 17 -5 -9 -13 -55 -22 -115 -3 -21 -7 -53 -10 -72 -5 -38 -16 -70 -48 -139
-25 -54 -24 -54 -131 -21 l-59 18 -35 -40 c-62 -71 -64 -77 -64 -176 1 -155 2
-168 12 -168 24 0 88 78 106 129 20 57 43 74 80 60 12 -4 41 -11 64 -14 91
-14 91 -17 -1 -72 -46 -28 -107 -62 -136 -77 -52 -26 -52 -26 -51 -72 0 -39
-4 -50 -30 -73 -34 -32 -34 -27 9 -211 37 -155 61 -222 142 -391 40 -83 43
-87 87 -101 41 -13 45 -17 43 -44 -1 -16 -7 -30 -13 -32 -5 -2 -10 -8 -10 -12
0 -5 19 -1 43 8 54 23 92 23 91 0 -2 -16 1 -16 23 2 37 29 68 26 83 -9 12 -31
39 -44 61 -30 26 16 57 9 78 -17 11 -15 18 -30 15 -35 -3 -5 0 -9 5 -9 10 0
15 14 12 32 0 4 10 15 23 24 14 8 23 21 20 29 -3 7 0 16 5 20 6 3 9 11 6 16
-13 19 6 49 31 49 26 0 31 9 13 27 -15 15 66 34 98 22 20 -7 25 -5 33 16 8 20
15 25 36 21 30 -6 54 -23 54 -41 0 -7 9 -24 20 -38 11 -14 20 -38 20 -54 0
-15 7 -37 15 -47 8 -10 12 -22 10 -26 -3 -4 8 -10 23 -13 18 -4 33 -18 45 -42
20 -41 21 -67 6 -98 -6 -12 16 7 50 43 33 36 61 68 61 72 0 8 81 68 92 68 4 0
8 -7 8 -15 0 -33 26 -15 69 48 51 75 87 60 67 -28 -15 -67 -27 -94 -57 -126
l-29 -31 30 -31 c32 -34 46 -69 35 -87 -4 -7 -15 0 -28 17 -34 44 -44 53 -61
53 -9 0 -16 7 -16 15 0 28 -34 85 -50 85 -9 0 -25 -9 -35 -20 -10 -11 -27 -20
-37 -20 -13 0 -17 -4 -12 -12 4 -7 3 -10 -1 -5 -11 9 -65 -42 -65 -62 0 -8 11
-27 25 -41 22 -23 24 -28 11 -45 -11 -16 -25 -19 -67 -18 -45 1 -57 6 -77 29
-22 25 -24 33 -17 83 14 104 12 119 -26 150 -19 16 -37 27 -41 24 -5 -2 -8 2
-8 11 0 8 -9 35 -20 60 l-19 45 -65 -2 -65 -2 6 -27 c6 -29 0 -33 -41 -28 -16
1 -18 -3 -13 -32 6 -41 -3 -61 -28 -56 -13 2 -21 -7 -29 -37 -7 -22 -18 -50
-25 -63 l-13 -24 -41 41 c-45 45 -55 49 -63 26 -8 -19 -24 -19 -24 0 0 9 -6
12 -15 9 -15 -6 -37 34 -32 58 4 20 -30 20 -50 0 -10 -10 -35 -29 -55 -41 -34
-20 -37 -25 -27 -44 36 -68 257 -347 276 -347 8 0 24 7 37 15 13 9 34 18 47
21 43 8 135 7 153 -3 14 -8 6 -12 -37 -22 -30 -6 -75 -25 -101 -41 -54 -34
-53 -41 12 -103 l40 -39 78 56 c44 31 106 81 139 111 64 59 84 64 140 41 40
-17 43 -29 14 -54 -12 -9 -45 -41 -73 -71 -28 -29 -64 -65 -80 -80 -57 -52
-106 -105 -106 -114 0 -11 130 -137 141 -137 15 0 145 143 164 180 11 21 36
62 55 90 19 29 46 84 60 124 21 61 29 71 50 74 34 4 88 -34 111 -77 18 -33 18
-36 1 -62 -9 -15 -40 -66 -69 -112 -28 -47 -81 -121 -118 -164 -75 -89 -75
-89 -99 -126 -10 -15 -14 -27 -10 -27 5 0 3 -4 -4 -9 -10 -6 4 -24 55 -67 90
-77 153 -128 163 -132 5 -2 23 25 40 60 18 35 41 75 51 90 33 46 51 101 54
163 2 33 12 88 24 122 12 35 22 82 22 105 2 47 23 124 42 149 36 48 73 41 96
-18 7 -17 19 -34 27 -37 17 -7 44 3 44 15 0 15 40 10 46 -5 3 -8 -6 -37 -20
-64 -22 -44 -36 -87 -52 -167 -2 -11 -17 -46 -33 -77 -17 -31 -32 -75 -35 -98
-3 -23 -16 -54 -29 -70 -20 -23 -24 -37 -21 -71 4 -44 -21 -99 -73 -162 -12
-16 -23 -34 -23 -40 0 -7 24 -30 53 -51 111 -84 341 -246 348 -246 8 0 20 31
25 65 2 11 7 35 13 53 5 18 10 35 10 37 0 18 26 122 33 131 14 19 11 154 -5
234 -25 117 -29 151 -28 206 1 28 -5 71 -13 95 -8 24 -17 57 -20 73 -3 16 -10
52 -17 81 -16 72 -9 89 33 79 18 -4 66 -7 106 -6 l72 3 7 -33 c7 -30 8 -52 4
-93 0 -9 -18 -23 -38 -33 -70 -32 -88 -79 -62 -162 6 -19 12 -44 14 -55 2 -11
6 -33 9 -50 4 -16 8 -70 11 -120 8 -149 14 -218 23 -250 5 -17 5 -43 0 -60 -5
-16 -11 -57 -14 -90 -6 -67 -14 -103 -38 -157 l-15 -36 122 -80 c67 -44 174
-112 237 -152 l114 -72 23 28 c13 16 34 65 47 109 21 68 24 97 21 190 -5 193
-31 347 -74 455 -16 38 -25 67 -20 64 11 -6 71 -98 91 -139 8 -16 27 -53 42
-81 14 -29 26 -59 26 -67 0 -9 4 -18 8 -21 31 -19 48 -314 25 -445 -7 -42 -22
-100 -34 -129 -12 -29 -20 -54 -18 -56 2 -2 33 -20 68 -40 l64 -37 186 112
c273 166 252 149 245 184 -2 17 -6 59 -8 95 -4 65 -29 174 -45 194 -10 13 -34
84 -36 106 -1 8 -5 25 -9 38 -4 12 -3 22 2 22 7 0 64 -110 67 -130 0 -3 6 -14
12 -25 32 -61 69 -200 72 -277 l1 -28 88 58 c48 31 98 65 111 74 l23 16 -50
84 c-48 78 -110 162 -201 268 -57 67 -446 454 -510 507 -76 63 -162 153 -156
163 6 10 80 3 103 -9 9 -6 82 -78 162 -161 80 -84 197 -204 260 -268 63 -65
126 -132 140 -151 14 -19 32 -41 40 -49 17 -17 99 -120 118 -148 7 -11 42 -60
78 -111 l65 -92 106 72 105 71 -98 94 c-112 106 -199 178 -294 243 -36 24 -67
46 -70 49 -3 3 -39 30 -80 61 -104 79 -145 114 -217 186 -66 65 -81 103 -41
103 20 0 106 -36 118 -49 3 -4 21 -18 40 -32 19 -15 51 -41 70 -58 19 -17 42
-31 50 -31 144 -7 220 -37 355 -139 67 -51 87 -61 121 -61 42 0 93 -26 243
-128 l75 -49 90 70 c50 39 93 73 96 76 3 3 26 22 52 41 26 19 48 41 48 49 0
26 -31 134 -47 157 -8 13 -12 24 -9 24 11 0 -51 115 -87 161 -19 24 -62 73
-97 109 -34 36 -79 90 -100 120 -21 30 -46 64 -57 76 -10 11 -24 30 -31 42
-11 20 -9 23 22 36 52 22 123 0 205 -63 53 -40 201 -184 201 -195 0 -5 15 -26
33 -45 38 -42 10 -23 -53 35 -156 144 -280 195 -280 115 0 -20 19 -50 71 -110
38 -44 74 -81 78 -81 5 0 33 -25 62 -56 30 -31 64 -67 77 -80 12 -13 22 -25
22 -28 0 -3 11 -22 25 -42 14 -20 25 -47 25 -58 0 -12 6 -30 13 -39 11 -15 17
-12 62 29 28 25 83 75 123 112 53 48 72 71 68 85 -3 14 -1 16 8 7 10 -7 23 -2
50 23 l37 34 -33 25 c-44 33 -299 180 -423 243 -55 28 -111 57 -125 65 -14 8
-27 16 -29 17 -2 2 2 9 8 17 10 12 19 12 49 3 37 -12 63 -27 240 -135 48 -30
112 -68 142 -84 30 -17 86 -53 125 -79 l69 -49 48 47 c43 42 50 56 30 59 -4 0
-16 4 -27 8 -304 118 -405 170 -405 211 0 14 77 -3 140 -30 87 -36 118 -42
126 -21 3 9 15 16 27 16 22 0 128 -26 162 -40 11 -4 39 -15 62 -24 l43 -16 76
93 c41 50 83 101 92 112 10 11 35 45 57 75 21 30 42 57 45 60 5 4 116 176 134
207 13 22 -52 45 -131 46 -24 0 -43 5 -43 10 0 5 29 7 66 4 49 -3 64 -1 60 8
-2 7 2 22 10 34 17 24 62 28 70 6 4 -8 10 -15 15 -15 6 0 67 115 74 140 1 3 8
21 17 40 40 93 108 322 108 366 0 17 -8 23 -38 28 -21 3 -49 15 -62 26 -13 11
-36 20 -52 20 -31 0 -29 10 -30 -137 0 -67 -4 -73 -29 -45 -9 9 -38 35 -65 57
-26 22 -66 56 -89 76 -113 101 -112 100 -200 115 -16 2 -40 7 -53 10 -16 3
-31 -4 -52 -26 -17 -17 -30 -35 -30 -39 0 -5 -10 -8 -23 -7 -20 2 -33 -13 -84
-98 -50 -83 -64 -100 -82 -98 -13 2 -21 -2 -21 -12 0 -21 -38 -45 -64 -41 -11
2 -77 11 -146 21 -69 9 -129 20 -135 24 -5 4 -27 6 -47 4 -21 -1 -38 0 -38 5
0 4 -13 6 -29 5 l-30 -2 30 41 30 42 -22 18 c-12 10 -29 21 -37 26 -21 12 -6
32 66 86 34 26 62 51 62 57 0 6 21 30 46 55 25 25 44 46 42 48 -4 4 -137 27
-158 27 -18 1 -19 -5 -5 -32 19 -37 19 -40 -4 -35 -11 2 -41 7 -67 11 -27 4
-63 13 -81 20 -18 8 -52 14 -75 14 -43 0 -93 24 -83 39 4 7 42 19 77 25 3 1 9
4 12 7 6 6 -100 18 -304 33 -60 5 -112 11 -164 22 -60 12 -76 14 -76 8 0 -4
12 -17 28 -30 29 -25 28 -26 -38 -29 -58 -4 -61 -5 -55 -15 9 -14 -7 -12 -30
4 -30 20 -84 36 -170 51 -16 3 -37 8 -45 10 -8 2 -37 7 -65 11 -27 3 -57 8
-65 9 -9 2 -41 6 -72 10 -52 7 -60 5 -101 -24 -25 -17 -50 -31 -56 -31 -6 0
-11 -4 -11 -9 0 -5 -15 -16 -32 -25 -18 -9 -54 -30 -80 -46 -27 -16 -48 -27
-48 -25 0 2 -17 -12 -38 -33 -61 -60 -133 -119 -194 -160 -56 -36 -77 -70 -69
-110 2 -11 -6 -12 -31 -7 -66 15 -87 12 -164 -26 -44 -21 -94 -42 -111 -45
-18 -3 -33 -10 -33 -15 0 -5 -22 -33 -49 -63 -46 -51 -91 -131 -91 -162 0 -17
-5 -17 -30 -2 -17 11 -24 7 -57 -26 -83 -85 -204 -103 -272 -42 -24 21 -46 64
-42 80 12 52 11 86 -2 86 -25 0 -48 36 -45 72 2 31 -5 41 -58 91 -32 31 -64
57 -70 57 -6 0 -22 14 -36 30 -32 39 -82 55 -103 34 -8 -9 -15 -21 -16 -27 -3
-44 -17 -66 -44 -67 -5 -1 -28 -29 -50 -63 -67 -105 -188 -222 -218 -212 -17
6 -102 16 -167 20 -30 1 -75 8 -100 15 -25 7 -83 14 -130 16 -47 2 -105 6
-130 8 -25 2 -53 4 -62 5 -27 2 -22 28 15 74 44 58 49 62 77 77 44 23 136 100
149 123 7 13 30 34 52 48 43 25 64 53 54 69 -4 6 9 10 29 10 22 0 43 7 54 18
11 11 39 33 65 50 43 30 48 31 98 22 29 -6 68 -14 88 -20 20 -5 52 -12 71 -15
19 -3 51 -10 70 -15 50 -14 55 -13 68 15 14 31 16 75 3 75 -5 0 -19 -8 -32
-19 -21 -17 -28 -17 -80 -5 -72 17 -267 79 -326 105 l-44 19 7 47 c3 27 8 51
10 54 1 3 26 3 54 -1 47 -6 50 -5 50 16 0 15 8 23 28 27 53 11 136 70 169 121
18 28 30 52 28 55 -3 2 0 10 6 17 8 10 18 10 49 -1 46 -16 50 -10 38 53 -9 50
-4 64 18 55 13 -5 15 -1 10 15 -4 12 -9 33 -12 47 -2 14 -11 33 -19 43 -7 9
-26 32 -41 50 l-27 33 -15 -23 c-9 -13 -18 -25 -22 -28 -3 -3 -21 -25 -40 -50
-19 -25 -37 -47 -40 -50 -3 -3 -18 -21 -34 -40 -16 -19 -67 -77 -115 -129 -47
-51 -97 -105 -110 -120 -73 -81 -124 -132 -130 -129 -4 2 -38 16 -75 32 l-67
30 4 120 c5 119 11 155 30 167 5 4 6 13 1 20 -20 32 -13 39 24 23 78 -34 189
-66 234 -68 50 -1 60 6 108 74 13 19 31 40 38 46 8 6 20 26 27 45 25 68 60
144 69 151 8 6 -37 88 -48 88 -3 0 -8 -9 -11 -20z m2737 -1607 c10 -9 18 -22
18 -29 0 -7 8 -20 17 -29 9 -10 17 -29 18 -44 2 -32 31 -102 42 -100 4 1 13 1
20 0 21 -2 61 -110 46 -125 -4 -3 -8 -16 -10 -28 -2 -12 -8 -27 -13 -33 -6 -7
-3 -17 10 -28 30 -25 43 -21 24 8 -20 31 -13 60 23 101 15 17 42 47 58 65 17
19 46 47 66 62 l36 27 15 -22 c15 -23 16 -22 51 33 38 59 65 79 78 57 8 -12 4
-63 -7 -98 -3 -11 0 -10 10 3 7 9 22 17 33 17 11 0 26 7 33 15 16 19 30 19 30
0 0 -9 -8 -18 -17 -21 -42 -14 -62 -28 -73 -54 -6 -15 -22 -37 -35 -49 l-24
-20 34 -38 c24 -26 35 -47 35 -68 l-1 -30 -37 41 c-20 22 -41 40 -47 40 -5 -1
-21 23 -34 52 -14 28 -30 52 -36 52 -7 0 -25 -11 -41 -25 -16 -14 -34 -25 -41
-25 -12 0 -47 -30 -71 -61 -10 -14 -7 -21 20 -48 31 -30 31 -31 13 -51 -13
-14 -31 -20 -63 -20 -37 0 -49 5 -74 32 -32 35 -31 25 -13 153 5 32 2 44 -14
60 -31 31 -49 45 -58 45 -4 0 -16 26 -26 58 l-19 58 -73 -1 c-61 0 -72 -2 -66
-15 14 -30 7 -45 -22 -42 -26 3 -32 -5 -27 -37 4 -32 -10 -59 -28 -54 -15 4
-21 -4 -31 -39 -7 -24 -18 -51 -26 -61 -12 -17 -16 -15 -56 22 -40 37 -45 39
-56 24 -14 -18 -28 -11 -28 14 0 9 -8 21 -17 26 -13 9 -22 7 -37 -7 -20 -18
-21 -18 -31 8 -20 53 -13 81 26 102 l36 19 18 -23 c10 -12 20 -27 22 -34 2 -6
21 -12 42 -13 37 -2 56 -16 56 -42 0 -25 19 -12 25 17 4 20 12 30 22 28 11 -2
16 9 20 47 4 50 16 67 40 58 9 -3 13 3 13 21 0 30 31 42 84 32 29 -6 35 -3 41
14 8 25 51 27 77 3z m-824 -8 c15 -8 61 -28 102 -45 75 -29 79 -35 66 -78 l-7
-22 50 20 c47 18 81 18 81 0 0 -8 -8 -16 -47 -50 -35 -30 -146 -100 -159 -100
-27 0 -14 39 26 79 42 43 44 49 7 29 -33 -18 -52 -19 -72 -4 -17 12 -17 29 -2
73 4 13 -115 9 -120 -5 -3 -7 -15 -10 -32 -6 -14 3 -50 6 -78 7 -43 1 -53 5
-53 19 0 9 9 20 21 23 23 8 93 8 127 1 17 -4 22 0 22 16 0 19 25 58 38 58 2 0
16 -7 30 -15z m-1053 -66 c11 -5 33 -11 49 -13 15 -3 64 -22 108 -42 74 -35
79 -39 73 -63 -8 -31 -9 -32 -29 -35 -9 -1 -16 -5 -16 -9 0 -4 0 -12 0 -17 0
-7 8 -7 23 1 21 11 21 10 6 -6 -10 -9 -37 -19 -62 -22 -38 -5 -47 -2 -60 18
-15 20 -15 25 -2 46 29 43 15 59 -70 80 -43 11 -42 10 -74 12 -20 1 -32 7 -36
21 -4 11 -11 18 -16 15 -19 -12 -8 15 12 29 21 15 26 14 94 -15z m2579 14 c15
-1 35 -8 43 -15 8 -6 27 -13 42 -14 45 -4 191 -75 191 -93 0 -23 -14 -42 -34
-45 -9 -1 -16 -5 -16 -9 0 -4 0 -11 0 -16 0 -13 33 -6 62 12 39 26 107 40 124
26 19 -16 18 -27 -6 -34 -21 -7 -28 -35 -9 -35 5 0 7 -5 4 -10 -4 -6 -10 -8
-15 -5 -4 3 -10 -1 -13 -9 -3 -8 -28 -26 -56 -42 -28 -15 -51 -30 -51 -35 0
-11 -52 -21 -62 -11 -11 11 46 96 83 123 16 11 29 25 29 30 0 6 -13 1 -29 -10
-35 -25 -93 -27 -115 -5 -20 19 -20 33 -1 58 8 11 15 24 15 28 0 15 -84 47
-142 54 -45 5 -57 11 -62 27 -3 12 -10 17 -19 14 -21 -8 -29 3 -15 20 6 8 14
10 17 6 3 -4 19 -9 35 -10z m892 -58 c8 -33 -2 -57 -23 -53 -29 5 -27 78 2 78
8 0 17 -11 21 -25z m-2651 -36 c-5 -24 -13 -35 -20 -28 -7 7 6 49 16 49 4 0 6
-10 4 -21z m-998 -13 c-6 -17 -57 -26 -57 -11 0 15 12 21 41 21 11 0 18 -5 16
-10z m699 -75 c16 -36 19 -38 63 -38 33 -1 40 2 26 7 -15 6 -16 9 -4 9 9 1 24
-8 34 -19 10 -11 14 -20 9 -20 -5 0 -2 -6 6 -13 22 -18 22 -33 -1 -79 l-21
-41 -58 58 -58 57 -16 -24 c-13 -18 -18 -20 -25 -9 -5 7 -13 11 -19 7 -15 -9
-42 40 -42 78 0 26 5 36 20 41 11 4 18 10 15 15 -3 4 5 6 17 2 14 -3 19 -1 14
6 -5 8 -2 10 8 6 9 -3 23 -23 32 -43z m-137 24 c2 -2 -8 -18 -22 -34 -14 -17
-27 -34 -29 -39 -7 -20 -177 -122 -192 -116 -22 9 -20 22 11 63 36 48 50 61
62 61 5 0 13 9 16 20 10 32 81 63 125 54 14 -3 27 -7 29 -9z m2753 -25 c16
-31 23 -35 59 -37 53 -4 76 -27 81 -80 3 -32 26 -16 43 31 10 28 20 46 22 39
5 -13 -36 -115 -50 -124 -5 -4 -33 18 -61 48 -52 53 -52 54 -71 33 -12 -14
-22 -17 -30 -10 -6 5 -15 7 -19 3 -10 -11 -34 29 -40 70 -6 35 -8 37 -29 27
-21 -11 -21 -11 -3 4 11 9 24 16 29 16 4 0 6 4 3 8 -2 4 7 8 22 7 21 0 31 -8
44 -35z m271 -13 c-7 -42 -10 -45 -24 -14 -9 21 -9 30 1 42 18 22 29 9 23 -28z
m-2653 -11 c0 -6 -4 -16 -8 -23 -10 -16 -36 1 -29 19 6 17 37 20 37 4z m1316
-317 c20 -36 17 -53 -16 -87 -25 -27 -29 -37 -24 -67 3 -19 16 -54 30 -78 19
-36 66 -150 78 -192 3 -12 11 -31 37 -101 11 -28 19 -55 18 -60 -2 -5 1 -31 5
-59 12 -67 13 -95 5 -95 -4 0 -27 11 -50 25 l-44 24 -1 118 -2 118 -44 91
c-25 49 -50 112 -57 139 -7 27 -21 60 -31 75 -18 25 -70 133 -70 144 0 3 15 6
33 6 17 1 46 7 62 14 40 17 55 14 71 -15z m-346 -34 c27 -29 42 -31 60 -10 7
8 18 15 26 15 14 0 13 -22 -2 -195 -3 -38 -8 -92 -11 -120 -2 -27 -5 -78 -6
-112 -1 -35 -6 -63 -10 -64 -4 0 -32 9 -63 21 -47 20 -54 25 -48 44 10 31 20
79 19 91 -1 6 -4 26 -8 45 -3 19 -8 69 -11 110 -3 41 -8 92 -11 114 -7 41 9
86 30 86 6 0 22 -11 35 -25z m-191 -11 c17 -10 32 -25 33 -33 4 -21 -54 -196
-86 -259 l-26 -52 -38 15 c-52 22 -57 30 -39 58 8 13 17 37 20 53 3 16 11 43
18 59 16 39 18 49 25 115 3 30 8 58 10 62 7 12 48 2 83 -18z m-209 -45 c0 -6
-9 -23 -20 -39 -11 -15 -24 -38 -30 -51 -23 -51 -70 -119 -81 -119 -6 0 -26 7
-45 15 l-36 15 41 49 c23 27 41 54 41 60 0 6 5 11 10 11 6 0 10 5 10 12 0 25
43 58 77 58 18 0 33 -5 33 -11z m-255 -66 c-22 -15 -48 -37 -57 -48 -16 -21
-50 -27 -64 -12 -12 12 49 57 96 72 65 20 69 18 25 -12z m-352 -64 c67 -45
154 -150 229 -276 95 -159 107 -182 112 -222 2 -17 20 -56 40 -86 20 -30 36
-59 36 -64 0 -5 16 -29 36 -52 39 -47 55 -78 61 -121 4 -29 -8 -37 -24 -15 -6
6 -28 53 -50 102 -21 50 -67 129 -101 176 -34 48 -62 90 -62 94 0 27 -160 209
-224 256 -36 27 -40 28 -67 13 -21 -10 -29 -22 -29 -41 0 -26 20 -93 30 -103
14 -14 78 -151 65 -140 -8 7 -15 18 -15 25 0 8 -3 15 -8 17 -11 4 -108 206
-122 253 -6 22 -22 64 -36 92 -38 84 -40 101 -13 113 34 14 106 4 142 -21z
m2082 -247 c-7 -7 -75 66 -75 82 0 5 19 -10 41 -33 23 -23 38 -45 34 -49z"/>
<path d="M3853 4593 c-12 -2 -27 -11 -33 -19 -7 -8 -19 -14 -26 -14 -8 0 -14
-3 -14 -7 0 -5 -23 -19 -51 -33 -43 -21 -58 -37 -106 -112 -30 -48 -54 -89
-54 -93 1 -3 -6 -19 -14 -35 -9 -17 -12 -30 -7 -30 11 0 143 127 171 165 32
42 116 129 154 160 31 24 27 27 -20 18z"/>
<path d="M2984 4191 c3 -5 8 -26 11 -46 2 -21 7 -41 11 -44 3 -3 4 12 0 34 -3
22 -5 46 -6 53 0 6 -5 12 -11 12 -5 0 -8 -4 -5 -9z"/>
<path d="M3291 4174 c0 -11 3 -14 6 -6 3 7 2 16 -1 19 -3 4 -6 -2 -5 -13z"/>
<path d="M3085 4108 c5 -53 -12 -80 -45 -71 -19 5 -24 14 -21 41 1 6 -2 12 -6
12 -10 0 -11 -235 -2 -245 9 -9 257 -11 265 -2 9 8 13 148 6 184 -2 13 -9 23
-14 23 -5 0 -7 -4 -3 -9 5 -10 -44 1 -65 14 -5 3 -10 2 -10 -3 0 -5 -19 -8
-42 -8 l-43 1 -12 55 -13 55 5 -47z"/>
<path d="M3283 4135 c0 -8 4 -12 9 -9 5 3 6 10 3 15 -9 13 -12 11 -12 -6z"/>
<path d="M2796 2594 c-8 -20 -8 -39 0 -31 4 3 13 -1 21 -9 21 -21 25 -13 11
24 -14 35 -23 40 -32 16z"/>
</g>
</svg>
