<svg width="90" height="40" viewBox="0 0 90 40" fill="none" xmlns="http://www.w3.org/2000/svg">
<rect width="90" height="40" rx="4" fill="white"/>
<path d="M69 20.5004C69 28.2373 62.7093 34.6004 54.9 34.6004C47.1631 34.6004 40.8 28.2373 40.8 20.5004C40.8 12.7635 47.0908 6.40039 54.8277 6.40039C62.7093 6.40039 69 12.7635 69 20.5004Z" fill="#F9B50B"/>
<path d="M50.1277 20.5727C50.1277 19.5604 49.9831 18.5481 49.8385 17.6081H41.1615C41.2338 17.1019 41.3785 16.6681 41.5231 16.0896H49.26C49.1154 15.5835 48.8985 15.0773 48.6815 14.5712H42.1015C42.3185 14.065 42.6077 13.6312 42.8969 13.0527H47.8862C47.5969 12.5465 47.2354 12.0404 46.8015 11.5342H44.0538C44.4877 11.0281 44.9215 10.5942 45.5 10.0881C43.0415 7.77424 39.7154 6.40039 36.0277 6.40039C28.3631 6.61731 22 12.7635 22 20.5004C22 28.2373 28.2908 34.6004 36.1 34.6004C39.7877 34.6004 43.0415 33.1542 45.5723 30.9127C46.0785 30.4789 46.5123 29.9727 47.0185 29.3942H44.1262C43.7646 28.9604 43.4031 28.4542 43.1138 27.9481H48.0308C48.32 27.5142 48.6092 27.0081 48.8262 26.4296H42.2462C42.0292 25.9958 41.8123 25.4896 41.6677 24.9112H49.4046C49.8385 23.6096 50.1277 22.1635 50.1277 20.5727Z" fill="#C8191C"/>
<path d="M41.0893 24.1161L41.3062 22.8146C41.2339 22.8146 41.0893 22.8869 40.9447 22.8869C40.4385 22.8869 40.3662 22.5977 40.4385 22.4531L40.8724 19.85H41.6677L41.8847 18.4038H41.1616L41.3062 17.5361H39.7877C39.7877 17.5361 38.92 22.4531 38.92 23.0315C38.92 23.8992 39.4262 24.3331 40.1493 24.3331C40.5831 24.3331 40.9447 24.1884 41.0893 24.1161Z" fill="white"/>
<path d="M41.5953 21.7299C41.5953 23.8268 43.0415 24.333 44.1984 24.333C45.283 24.333 45.7892 24.116 45.7892 24.116L46.0784 22.6699C46.0784 22.6699 45.283 23.0314 44.4876 23.0314C42.8246 23.0314 43.1138 21.8022 43.1138 21.8022H46.1507C46.1507 21.8022 46.3676 20.8622 46.3676 20.4283C46.3676 19.4883 45.8615 18.2591 44.1984 18.2591C42.7523 18.1868 41.5953 19.8499 41.5953 21.7299ZM44.1984 19.5606C44.9938 19.5606 44.8492 20.5006 44.8492 20.573H43.1861C43.2584 20.5006 43.403 19.5606 44.1984 19.5606Z" fill="white"/>
<path d="M53.6707 24.1166L53.96 22.4535C53.96 22.4535 53.2369 22.815 52.6584 22.815C51.6461 22.815 51.14 22.0196 51.14 21.0796C51.14 19.2719 52.0077 18.3319 53.0923 18.3319C53.8153 18.3319 54.4661 18.7658 54.4661 18.7658L54.683 17.175C54.683 17.175 53.8153 16.8135 52.9477 16.8135C51.2123 16.8135 49.5492 18.3319 49.5492 21.1519C49.5492 23.0319 50.4169 24.2612 52.2246 24.2612C52.8753 24.3335 53.6707 24.1166 53.6707 24.1166Z" fill="white"/>
<path d="M32.9184 18.1865C31.9061 18.1865 31.1107 18.4758 31.1107 18.4758L30.8938 19.7773C30.8938 19.7773 31.5445 19.4881 32.5569 19.4881C33.063 19.4881 33.4969 19.5604 33.4969 19.9942C33.4969 20.2834 33.4245 20.3558 33.4245 20.3558H32.7738C31.4722 20.3558 30.0984 20.8619 30.0984 22.5973C30.0984 23.9711 30.9661 24.2604 31.5445 24.2604C32.5569 24.2604 33.063 23.6096 33.1353 23.6096L33.063 24.1881H34.2922L34.8707 20.0665C34.8707 18.2588 33.4245 18.1865 32.9184 18.1865ZM33.2076 21.5127C33.2076 21.7296 33.063 22.9588 32.1953 22.9588C31.7615 22.9588 31.6169 22.5973 31.6169 22.3804C31.6169 22.0188 31.8338 21.5127 32.9907 21.5127C33.1353 21.5127 33.2076 21.5127 33.2076 21.5127Z" fill="white"/>
<path d="M36.317 24.2604C36.6785 24.2604 38.5585 24.3327 38.5585 22.3081C38.5585 20.4281 36.7508 20.7896 36.7508 20.0666C36.7508 19.705 37.04 19.5604 37.5462 19.5604C37.7631 19.5604 38.5585 19.6327 38.5585 19.6327L38.7754 18.2589C38.7754 18.2589 38.2693 18.1143 37.3293 18.1143C36.2447 18.1143 35.0877 18.5481 35.0877 20.0666C35.0877 21.8019 36.9677 21.6573 36.9677 22.3081C36.9677 22.7419 36.4616 22.8143 36.1 22.8143C35.4493 22.8143 34.7262 22.5973 34.7262 22.5973L34.5093 23.9712C34.6539 24.1158 35.0877 24.2604 36.317 24.2604Z" fill="white"/>
<path d="M66.1077 17.0303L65.8185 19.0549C65.8185 19.0549 65.24 18.3318 64.3723 18.3318C62.9985 18.3318 61.8416 19.9949 61.8416 21.9472C61.8416 23.1764 62.42 24.4057 63.7216 24.4057C64.5892 24.4057 65.1677 23.8272 65.1677 23.8272L65.0954 24.3333H66.6139L67.6985 17.1749L66.1077 17.0303ZM65.3846 20.9349C65.3846 21.7303 65.0231 22.8149 64.1554 22.8149C63.6492 22.8149 63.36 22.381 63.36 21.5857C63.36 20.3564 63.8662 19.6333 64.5892 19.6333C65.0954 19.7057 65.3846 20.0672 65.3846 20.9349Z" fill="white"/>
<path d="M24.7477 24.1887L25.6154 18.838L25.76 24.1887H26.7723L28.7246 18.838L27.9292 24.1887H29.52L30.7492 17.0303H28.2907L26.7723 21.441L26.7 17.0303H24.5307L23.3015 24.1887H24.7477Z" fill="white"/>
<path d="M47.8861 24.188C48.3199 21.7295 48.3923 19.7049 49.4769 20.0664C49.6215 19.1264 49.8384 18.6926 49.983 18.3311H49.6938C49.043 18.3311 48.4646 19.1987 48.4646 19.1987L48.6092 18.4034H47.163L46.223 24.188H47.8861Z" fill="white"/>
<path d="M57.1415 18.1865C56.1292 18.1865 55.3338 18.4758 55.3338 18.4758L55.1169 19.7773C55.1169 19.7773 55.7677 19.4881 56.78 19.4881C57.2861 19.4881 57.72 19.5604 57.72 19.9942C57.72 20.2834 57.6477 20.3558 57.6477 20.3558H56.9969C55.6954 20.3558 54.3215 20.8619 54.3215 22.5973C54.3215 23.9711 55.1892 24.2604 55.7677 24.2604C56.78 24.2604 57.2861 23.6096 57.3585 23.6096L57.2861 24.1881H58.66L59.2385 20.0665C59.2385 18.2588 57.6477 18.1865 57.1415 18.1865ZM57.5031 21.5127C57.5031 21.7296 57.3585 22.9588 56.4908 22.9588C56.0569 22.9588 55.9123 22.5973 55.9123 22.3804C55.9123 22.0188 56.1292 21.5127 57.2861 21.5127C57.4308 21.5127 57.4308 21.5127 57.5031 21.5127Z" fill="white"/>
<path d="M60.3954 24.188C60.8292 21.7295 60.9015 19.7049 61.9861 20.0664C62.1308 19.1264 62.3477 18.6926 62.4923 18.3311H62.2031C61.5523 18.3311 60.9738 19.1987 60.9738 19.1987L61.1185 18.4034H59.6723L58.7323 24.188H60.3954Z" fill="white"/>
</svg>
