<svg width="40" height="40" viewBox="0 0 40 40" fill="none" xmlns="http://www.w3.org/2000/svg">
<path d="M0 20C0 8.9543 8.9543 0 20 0C31.0457 0 40 8.9543 40 20C40 31.0457 31.0457 40 20 40C8.9543 40 0 31.0457 0 20Z" fill="#F68634"/>
<path d="M22.1633 24.5343L25.1522 27.4198C25.7645 28.0096 25.7645 28.9675 25.1522 29.5579C24.5405 30.1483 23.5491 30.1483 22.9381 29.5579L19.9995 26.7225L17.0633 29.5579C16.7572 29.8528 16.356 30.0004 15.9549 30.0004C15.5543 30.0004 15.1538 29.8528 14.8477 29.5579C14.236 28.9675 14.236 28.0102 14.847 27.4198L17.8362 24.5343C16.7479 24.295 15.6983 23.8787 14.7315 23.2932C13.9999 22.8479 13.7801 21.9151 14.2411 21.2082C14.7008 20.5004 15.6676 20.2874 16.4005 20.7326C18.5893 22.0617 21.409 22.062 23.599 20.7326C24.332 20.2874 25.2984 20.5004 25.7591 21.2082C26.22 21.9144 25.9996 22.8479 25.268 23.2932C24.3012 23.8793 23.2516 24.295 22.1633 24.5343Z" fill="white"/>
<path fill-rule="evenodd" clip-rule="evenodd" d="M14.6398 15.1613C14.6398 18.0066 17.0378 20.3211 19.9864 20.3211C22.9356 20.3211 25.333 18.0066 25.333 15.1613C25.333 12.3151 22.9356 10 19.9864 10C17.0378 10 14.6398 12.3151 14.6398 15.1613ZM22.2001 15.1615C22.2001 13.9831 21.2071 13.0249 19.9864 13.0249C18.7666 13.0249 17.7726 13.9831 17.7726 15.1615C17.7726 16.339 18.7666 17.2978 19.9864 17.2978C21.2071 17.2978 22.2001 16.339 22.2001 15.1615Z" fill="white"/>
</svg>
