<svg width="107" height="73" viewBox="0 0 107 73" fill="none" xmlns="http://www.w3.org/2000/svg">
<path d="M80.7 73C75 73 70 69.1 68.5 63.6L68.3 62.9H46.5L46.3 63.6C44.8 69.1 39.8 73 34.1 73C28.4 73 23.4 69.1 21.9 63.6L21.7 62.9H12C10.7 62.9 9.59998 61.8 9.59998 60.5C9.59998 59.2 10.7 58.1 12 58.1H21.6L21.8 57.3C23.2 51.7 28.2 47.7 34 47.7C39.8 47.7 44.8 51.6 46.2 57.3L46.4 58.1H68.1L68.3 57.3C69.7 51.7 74.7 47.7 80.5 47.7C86.3 47.7 91.3 51.6 92.7 57.3L92.9 58.1H101.1V39.1L95.6 32H68.6C67.3 32 66.2 30.9 66.2 29.6V4.8H12.1C10.8 4.8 9.69998 3.7 9.69998 2.4C9.69998 1.1 10.8 0 12.1 0H68.9C70.2 0 71.3 1.1 71.3 2.4V6.8H86.8C87.7 6.8 88.5 7.3 89 8.1L98.8 27.5L99 28L99.4 28.7L105.8 36.9C106.1 37.3 106.3 37.8 106.3 38.4V60.6C106.3 61.9 105.2 63 103.9 63H93.1L92.9 63.7C91.4 69.1 86.4 73 80.7 73ZM80.7 52.5C76.4 52.5 72.9 56 72.9 60.3C72.9 64.6 76.4 68.1 80.7 68.1C85 68.1 88.5 64.6 88.5 60.3C88.5 56 85 52.5 80.7 52.5ZM34.1 52.5C29.8 52.5 26.3 56 26.3 60.3C26.3 64.6 29.8 68.1 34.1 68.1C38.4 68.1 41.9 64.6 41.9 60.3C41.9 56 38.4 52.5 34.1 52.5ZM71.3 27.3H93.2L85.3 11.7H71.3V27.3Z" fill="white"/>
<path d="M7.99998 45.5998C6.69998 45.5998 5.59998 44.4998 5.59998 43.1998C5.59998 41.8998 6.69998 40.7998 7.99998 40.7998H23.7C24.3 40.7998 24.9 41.0998 25.4 41.4998C25.9 41.9998 26.1 42.5998 26.1 43.1998C26.1 44.4998 25 45.5998 23.7 45.5998H7.99998Z" fill="white"/>
<path d="M2.4 32.1999C1.1 32.1999 0 31.0999 0 29.7999C0 28.4999 1.1 27.3999 2.4 27.3999H31.5C32.8 27.3999 33.9 28.4999 33.9 29.7999C33.9 31.0999 32.8 32.1999 31.5 32.1999H2.4Z" fill="white"/>
<path d="M7.99998 18.8C6.69998 18.8 5.59998 17.7 5.59998 16.4C5.59998 15.1 6.59998 14 7.99998 14H37.1C37.7 14 38.3 14.3 38.8 14.7C39.3 15.2 39.5 15.8 39.5 16.4C39.5 17.7 38.4 18.8 37.1 18.8H7.99998Z" fill="white"/>
</svg>
