<svg width="90" height="40" viewBox="0 0 90 40" fill="none" xmlns="http://www.w3.org/2000/svg">
<rect width="90" height="40" rx="4" fill="white"/>
<path d="M69.9918 11.6143H66.245C65.1123 11.6143 64.241 11.9628 63.7181 13.0955L56.5731 29.3897H61.6269C61.6269 29.3897 62.4983 27.2113 62.6725 26.6885C63.1953 26.6885 68.162 26.6885 68.8591 26.6885C69.0334 27.2985 69.469 29.3026 69.469 29.3026H74L69.9918 11.6143ZM64.0667 23.0289C64.5024 21.9833 65.9836 18.0622 65.9836 18.0622C65.9836 18.1493 66.4193 17.0166 66.5936 16.4067L66.9421 17.9751C66.9421 17.9751 67.9006 22.2447 68.0749 23.116H64.0667V23.0289Z" fill="#3362AB"/>
<path d="M56.9216 23.5504C56.9216 27.21 53.6105 29.6498 48.4696 29.6498C46.2912 29.6498 44.2 29.2141 43.0673 28.6913L43.7643 24.6831L44.3743 24.9445C45.9427 25.6416 46.9883 25.903 48.9053 25.903C50.2994 25.903 51.7807 25.3802 51.7807 24.1603C51.7807 23.3761 51.1708 22.8533 49.2538 21.982C47.424 21.1106 44.9842 19.7165 44.9842 17.1896C44.9842 13.7042 48.3825 11.3516 53.1749 11.3516C55.0047 11.3516 56.5731 11.7001 57.5316 12.1358L56.8345 15.9697L56.486 15.6212C55.6146 15.2726 54.4819 14.9241 52.8263 14.9241C50.9965 15.0112 50.1252 15.7954 50.1252 16.4925C50.1252 17.2767 51.1708 17.8866 52.8263 18.6709C55.6146 19.9779 56.9216 21.4592 56.9216 23.5504Z" fill="#3362AB"/>
<path d="M14.4 11.787L14.4872 11.4385H21.9807C23.0263 11.4385 23.8106 11.787 24.072 12.9198L25.7275 20.7619C24.072 16.5794 20.238 13.1812 14.4 11.787Z" fill="#F9B50B"/>
<path d="M36.2707 11.6135L28.69 29.3018H23.5491L19.1924 14.4889C22.3292 16.493 24.9433 19.6299 25.9017 21.8082L26.4245 23.6381L31.1298 11.5264H36.2707V11.6135Z" fill="#3362AB"/>
<path d="M38.2749 11.5264H43.0673L40.0176 29.3018H35.2252L38.2749 11.5264Z" fill="#3362AB"/>
</svg>
